<svg width="403" height="328" viewBox="0 0 403 328" fill="none" xmlns="http://www.w3.org/2000/svg">
<g clip-path="url(#clip0_204_2)">
<path d="M284.876 309.094C283.338 310.554 281.449 311.593 279.392 312.112C277.335 312.631 275.179 312.612 273.132 312.057C267.885 310.568 264.324 305.839 261.163 301.397L251.811 288.263L259.693 289.707C265.361 290.746 271.169 291.836 276.106 294.807C281.042 297.778 284.996 303.082 284.683 308.831" fill="#E6E6E6"/>
<path d="M292.202 326.787C290.82 322.078 289.429 317.305 286.989 313.013C284.821 309.202 281.86 305.858 277.952 303.779C275.88 302.679 273.631 301.948 271.308 301.62C270.701 301.534 270.603 302.477 271.206 302.562C275.229 303.136 278.966 304.972 281.878 307.805C285.105 310.96 287.223 315.028 288.788 319.214C289.736 321.746 290.5 324.339 291.261 326.932C291.284 327.054 291.352 327.164 291.453 327.237C291.554 327.311 291.679 327.343 291.803 327.328C291.927 327.308 292.038 327.24 292.112 327.139C292.187 327.038 292.218 326.911 292.2 326.787L292.202 326.787Z" fill="#F2F2F2"/>
<path d="M140.001 137.143C139.102 136.927 138.167 136.91 137.262 137.094C136.356 137.278 135.502 137.658 134.759 138.207C134.017 138.756 133.403 139.461 132.963 140.273C132.523 141.084 132.266 141.983 132.21 142.904L110.587 148.977L119.41 156.612L138.591 149.674C140.147 149.664 141.645 149.085 142.802 148.045C143.958 147.006 144.693 145.579 144.867 144.034C145.041 142.49 144.641 140.935 143.744 139.665C142.847 138.395 141.515 137.498 140.001 137.143L140.001 137.143Z" fill="#FFB7B7"/>
<path d="M84.4345 321.092L90.7375 321.091L93.7362 296.803L84.4333 296.803L84.4345 321.092Z" fill="#FFB7B7"/>
<path d="M82.8272 327.196L103.151 327.195V326.938C103.15 324.842 102.317 322.832 100.833 321.35C99.35 319.868 97.338 319.035 95.2401 319.035H95.2396L82.8269 319.036L82.8272 327.196Z" fill="#2F2E41"/>
<path d="M47.5012 321.092L53.8043 321.091L56.803 296.803L47.5007 296.803L47.5012 321.092Z" fill="#FFB7B7"/>
<path d="M45.894 327.196L66.2173 327.195V326.938C66.2171 324.842 65.3837 322.832 63.9002 321.35C62.4168 319.868 60.4048 319.035 58.3069 319.035H58.3064L45.8936 319.036L45.894 327.196Z" fill="#2F2E41"/>
<path d="M89.5845 181.687L98.869 245.937L96.5558 313.63L82.6137 314.739L78.254 254.031L67.156 220.18L60.6314 268.434L60.3634 313.63L45.9667 314.739L40.9456 219.721L44.6389 178.398L89.5845 181.687Z" fill="#2F2E41"/>
<path d="M62.7308 95.6644C54.6189 95.6644 48.043 89.0946 48.043 80.9904C48.043 72.8861 54.6189 66.3163 62.7308 66.3163C70.8426 66.3163 77.4186 72.8861 77.4186 80.9904C77.4186 89.0946 70.8426 95.6644 62.7308 95.6644Z" fill="#FFB7B7"/>
<path d="M71.784 103.646L87.999 185.259C87.999 185.259 60.6989 193.087 48.7393 185.86C36.7796 178.634 42.1387 156.325 42.1387 156.325L44.3291 118.364L48.3768 108.765L51.8111 100.84L71.784 103.646Z" fill="#CBCBCB"/>
<path d="M76.5303 161.577L70.9289 102.062L75.4085 105.329L91.0711 110.411L92.143 152.312L103.099 207.412C103.099 207.412 95.2679 222.679 85.5624 197.422L76.5303 161.577Z" fill="#2F2E41"/>
<path d="M83.5332 116.678L91.0708 110.411L108.012 147.178L126.917 143.041L127.81 154.195L100.42 165.025L81.7542 139.064L83.5332 116.678Z" fill="#2F2E41"/>
<path d="M54.2091 148.55L52.098 100.113L44.329 106.123L30.4545 109.987L32.489 148.55L29.5613 208.387L44.1074 212.99L48.1906 175.232L54.2091 148.55Z" fill="#2F2E41"/>
<path d="M53.2756 187.541C53.1129 186.632 52.7527 185.77 52.2204 185.016C51.6881 184.261 50.9967 183.632 50.1949 183.173C49.393 182.715 48.5002 182.437 47.5794 182.36C46.6585 182.283 45.732 182.409 44.8651 182.729L30.6096 165.387L27.1575 176.527L41.2241 191.287C41.8581 192.706 42.9913 193.844 44.4088 194.485C45.8263 195.125 47.4297 195.224 48.9153 194.762C50.4008 194.3 51.6652 193.31 52.4688 191.979C53.2724 190.648 53.5595 189.069 53.2756 187.541V187.541Z" fill="#FFB7B7"/>
<path d="M39.7437 115.364L30.4546 109.987L7.08079 156.101L29.8694 187.716L42.8672 177.333L27.0843 156.771L41.4689 134.685L39.7437 115.364Z" fill="#2F2E41"/>
<path d="M48.9167 69.2592L48.2047 67.8274L51.7875 66.0489C51.7875 66.0489 55.74 59.6238 62.8922 61.4294C70.0444 63.235 73.2623 64.3156 73.2623 64.3156L76.8361 66.1122L75.0424 67.8952L78.2603 68.9758L76.1105 70.0429L78.6118 71.4792L77.2653 78.8423C77.2653 78.8423 75.0289 73.2577 70.7295 75.3918C66.43 77.526 58.5657 74.2886 58.5657 74.2886L51.7333 87.499C51.7333 87.499 50.3238 82.8681 47.8108 84.1029C47.8107 84.103 41.3904 73.8878 48.9167 69.2592Z" fill="#2F2E41"/>
<path d="M138.135 90.7878H138.229L192.093 113.767L265.791 145.207C266.079 145.328 266.388 145.391 266.7 145.392C267.013 145.394 267.322 145.334 267.611 145.216L343.646 113.701L398.833 90.8252L398.918 90.7878H399.012C399.882 90.7887 400.717 91.1348 401.333 91.7499C401.949 92.3651 402.295 93.1991 402.296 94.0691V236.573C402.295 237.443 401.949 238.277 401.333 238.893C400.717 239.508 399.882 239.854 399.012 239.855H138.135C137.264 239.854 136.429 239.508 135.813 238.893C135.198 238.277 134.851 237.443 134.85 236.573V94.0691C134.851 93.1991 135.198 92.3651 135.813 91.7499C136.429 91.1348 137.264 90.7887 138.135 90.7878V90.7878Z" fill="white"/>
<path d="M137.901 91.7253C137.996 91.7254 138.09 91.696 138.168 91.6413L267.931 1.35568C268.326 1.0822 268.795 0.936041 269.275 0.936859C269.756 0.937677 270.225 1.08543 270.619 1.36025L399.446 91.6404C399.548 91.7116 399.674 91.7395 399.797 91.7179C399.919 91.6964 400.028 91.6271 400.099 91.5254C400.171 91.4237 400.199 91.2978 400.177 91.1754C400.156 91.053 400.087 90.9441 399.985 90.8727L271.157 0.592592C270.606 0.207901 269.95 0.00110127 269.277 -3.18232e-06C268.604 -0.00110763 267.947 0.203534 267.394 0.586412L137.632 90.8718C137.55 90.9288 137.489 91.0106 137.456 91.105C137.424 91.1995 137.423 91.3018 137.453 91.397C137.483 91.4922 137.542 91.5754 137.623 91.6344C137.703 91.6935 137.801 91.7253 137.901 91.7253L137.901 91.7253Z" fill="#3F3D56"/>
<path d="M392.085 94.9258L269.148 3.89971L145.278 101.403L262.814 171.014L326.625 156.482L392.085 94.9258Z" fill="#E6E6E6"/>
<path d="M321.239 214.01H381.973C382.345 214.011 382.715 213.939 383.06 213.797C383.405 213.655 383.718 213.447 383.983 213.184C384.247 212.921 384.457 212.609 384.6 212.265C384.743 211.921 384.818 211.552 384.818 211.179C384.819 210.807 384.746 210.438 384.603 210.093C384.461 209.749 384.252 209.436 383.989 209.172C383.725 208.909 383.412 208.699 383.068 208.557C382.723 208.414 382.354 208.34 381.981 208.34H321.239C320.866 208.339 320.496 208.412 320.151 208.554C319.806 208.695 319.493 208.904 319.229 209.166C318.964 209.429 318.755 209.742 318.611 210.086C318.468 210.43 318.394 210.798 318.393 211.171C318.393 211.544 318.466 211.913 318.608 212.257C318.75 212.601 318.959 212.914 319.223 213.178C319.486 213.442 319.799 213.651 320.144 213.794C320.488 213.936 320.857 214.01 321.23 214.01H321.239Z" fill="#027BFF"/>
<path d="M360.183 201.822H381.973C382.346 201.823 382.715 201.751 383.06 201.609C383.405 201.467 383.718 201.259 383.983 200.996C384.247 200.733 384.457 200.421 384.6 200.077C384.743 199.733 384.818 199.364 384.818 198.992C384.819 198.619 384.746 198.25 384.603 197.906C384.461 197.561 384.252 197.248 383.989 196.984C383.725 196.721 383.412 196.512 383.068 196.369C382.723 196.226 382.354 196.153 381.981 196.153H360.183C359.431 196.152 358.71 196.451 358.178 196.981C357.645 197.512 357.346 198.232 357.345 198.983C357.344 199.734 357.641 200.455 358.172 200.988C358.702 201.52 359.422 201.82 360.174 201.822H360.183Z" fill="#027BFF"/>
<path d="M267.419 145.626C267.881 145.626 268.338 145.537 268.765 145.362L344.584 113.932V15.551C344.583 14.6811 344.237 13.8471 343.621 13.2319C343.005 12.6168 342.17 12.2707 341.3 12.2697H195.847C194.976 12.2707 194.141 12.6168 193.525 13.2319C192.91 13.8471 192.563 14.6811 192.562 15.551V114.001L192.705 114.062L266.032 145.347C266.471 145.532 266.943 145.626 267.419 145.626V145.626Z" fill="#027BFF"/>
<path d="M138.839 90.7878H138.933L192.797 113.767L266.495 145.207C266.783 145.328 267.092 145.391 267.404 145.392C267.716 145.394 268.026 145.334 268.315 145.216L344.35 113.701L399.537 90.8252L399.622 90.7878H399.716C400.586 90.7887 401.421 91.1348 402.037 91.7499C402.653 92.3651 402.999 93.1991 403 94.0691V236.573C402.999 237.443 402.653 238.277 402.037 238.893C401.421 239.508 400.586 239.854 399.716 239.855H138.839C137.968 239.854 137.133 239.508 136.517 238.893C135.902 238.277 135.555 237.443 135.554 236.573V94.0691C135.555 93.1991 135.902 92.3651 136.517 91.7499C137.133 91.1348 137.968 90.7887 138.839 90.7878ZM136.493 236.573C136.493 237.195 136.74 237.791 137.18 238.23C137.62 238.67 138.216 238.917 138.839 238.917H399.716C400.338 238.917 400.934 238.67 401.374 238.23C401.814 237.791 402.061 237.195 402.062 236.573V94.0691C402.061 93.463 401.825 92.8807 401.405 92.4439C400.984 92.0071 400.411 91.7496 399.805 91.7253L344.35 114.713L268.676 146.083C267.857 146.416 266.939 146.411 266.124 146.069L192.797 114.784L138.745 91.7253C138.14 91.7514 137.568 92.0096 137.148 92.4461C136.729 92.8827 136.494 93.464 136.493 94.0691L136.493 236.573Z" fill="#3F3D56"/>
<path d="M279.223 49.045H330.835C331.829 49.0432 332.783 48.6474 333.485 47.9443C334.188 47.2412 334.582 46.2883 334.582 45.2949C334.582 44.3014 334.188 43.3485 333.485 42.6454C332.783 41.9424 331.829 41.5465 330.835 41.5448H279.223C278.228 41.5465 277.275 41.9424 276.573 42.6454C275.87 43.3485 275.476 44.3014 275.476 45.2949C275.476 46.2883 275.87 47.2412 276.573 47.9443C277.275 48.6474 278.228 49.0432 279.223 49.045V49.045Z" fill="white"/>
<path d="M305.967 33.107H330.835C331.831 33.107 332.785 32.7119 333.489 32.0086C334.193 31.3053 334.589 30.3515 334.589 29.3569C334.589 28.3623 334.193 27.4084 333.489 26.7052C332.785 26.0019 331.831 25.6068 330.835 25.6068H305.967C304.972 25.6068 304.017 26.0019 303.313 26.7052C302.609 27.4084 302.214 28.3623 302.214 29.3569C302.214 30.3515 302.609 31.3053 303.313 32.0086C304.017 32.7119 304.972 33.107 305.967 33.107V33.107Z" fill="white"/>
<path d="M229.971 86.5461H308.797C309.793 86.5461 310.748 86.151 311.452 85.4477C312.155 84.7444 312.551 83.7906 312.551 82.796C312.551 81.8014 312.155 80.8475 311.452 80.1442C310.748 79.441 309.793 79.0459 308.797 79.0459H229.971C228.976 79.0459 228.021 79.441 227.317 80.1442C226.613 80.8475 226.217 81.8014 226.217 82.796C226.217 83.7906 226.613 84.7444 227.317 85.4477C228.021 86.151 228.976 86.5461 229.971 86.5461V86.5461Z" fill="white"/>
<path d="M229.971 103.89H308.797C309.291 103.891 309.78 103.795 310.236 103.607C310.692 103.419 311.107 103.143 311.456 102.794C311.805 102.446 312.082 102.032 312.271 101.577C312.46 101.121 312.557 100.633 312.557 100.14C312.557 99.6472 312.46 99.159 312.271 98.7036C312.082 98.2482 311.805 97.8345 311.456 97.4862C311.107 97.1379 310.692 96.8618 310.236 96.6737C309.78 96.4856 309.291 96.3893 308.797 96.3901H229.971C229.478 96.3893 228.989 96.4856 228.533 96.6737C228.076 96.8618 227.662 97.1379 227.313 97.4862C226.963 97.8345 226.686 98.2482 226.497 98.7036C226.308 99.159 226.211 99.6472 226.211 100.14C226.211 100.633 226.308 101.121 226.497 101.577C226.686 102.032 226.963 102.446 227.313 102.794C227.662 103.143 228.076 103.419 228.533 103.607C228.989 103.795 229.478 103.891 229.971 103.89V103.89Z" fill="white"/>
<path d="M0.572555 327.788H151.164C151.316 327.788 151.462 327.728 151.569 327.621C151.677 327.513 151.737 327.368 151.737 327.216C151.737 327.064 151.677 326.919 151.569 326.812C151.462 326.704 151.316 326.644 151.164 326.644H0.572555C0.420694 326.644 0.275061 326.704 0.167679 326.812C0.0602975 326.919 -3.73125e-05 327.064 -3.73125e-05 327.216C-3.73125e-05 327.368 0.0602975 327.513 0.167679 327.621C0.275061 327.728 0.420694 327.788 0.572555 327.788Z" fill="#CBCBCB"/>
<path d="M263.392 327.788H318.934C319.085 327.788 319.231 327.728 319.339 327.621C319.446 327.513 319.506 327.368 319.506 327.216C319.506 327.064 319.446 326.919 319.339 326.812C319.231 326.704 319.085 326.644 318.934 326.644H263.392C263.24 326.644 263.095 326.704 262.987 326.812C262.88 326.919 262.82 327.064 262.82 327.216C262.82 327.368 262.88 327.513 262.987 327.621C263.095 327.728 263.24 327.788 263.392 327.788Z" fill="#CBCBCB"/>
<path d="M298.511 310.101C296.39 310.053 294.318 309.459 292.493 308.378C290.669 307.297 289.153 305.764 288.094 303.928C285.424 299.176 286.237 293.314 287.131 287.938L289.77 272.037L294.339 278.614C297.625 283.343 300.974 288.208 302.377 293.793C303.78 299.377 302.84 305.923 298.56 309.779" fill="#E6E6E6"/>
<path d="M291.218 327.807C293.561 323.495 295.945 319.131 297.243 314.369C298.396 310.14 298.657 305.682 297.354 301.455C296.661 299.215 295.583 297.113 294.167 295.243C293.797 294.755 293.062 295.354 293.429 295.839C295.877 299.081 297.231 303.016 297.295 307.076C297.357 311.586 295.987 315.962 294.142 320.033C293.027 322.495 291.739 324.873 290.449 327.247C290.378 327.35 290.35 327.476 290.369 327.599C290.388 327.723 290.454 327.834 290.553 327.91C290.655 327.983 290.782 328.014 290.906 327.994C291.03 327.975 291.141 327.907 291.216 327.806L291.218 327.807Z" fill="#F2F2F2"/>
</g>
<defs>
<clipPath id="clip0_204_2">
<rect width="403" height="328" fill="white" transform="matrix(-1 0 0 1 403 0)"/>
</clipPath>
</defs>
</svg>
