<svg width="200" height="190" viewBox="0 0 200 190" fill="none" xmlns="http://www.w3.org/2000/svg">
<g id="stability" clip-path="url(#clip0_163_10)">
<g id="lightGroup">
<path id="light1" opacity="0.7" d="M134.214 71.3484C134.984 70.015 136.908 70.015 137.678 71.3484L159.524 109.187C160.294 110.52 159.332 112.187 157.792 112.187H114.1C112.56 112.187 111.598 110.52 112.368 109.187L134.214 71.3484Z" fill="#FF689B"/>
</g>
<g id="darkGroup">
<path id="dark1" opacity="0.7" d="M101.958 61.4516C101.188 62.7849 99.2635 62.7849 98.4937 61.4516L76.6476 23.6129C75.8778 22.2796 76.84 20.6129 78.3796 20.6129L122.072 20.6129C123.612 20.6129 124.574 22.2796 123.804 23.6129L101.958 61.4516Z" fill="#027BFF"/>
<path id="dark2" opacity="0.7" d="M173.399 61.4516C172.629 62.7849 170.704 62.7849 169.935 61.4516L148.088 23.6129C147.319 22.2796 148.281 20.6129 149.82 20.6129L193.513 20.6129C195.052 20.6129 196.015 22.2796 195.245 23.6129L173.399 61.4516Z" fill="#027BFF"/>
</g>
<g id="barGroup">
<rect id="bar" x="89.1849" y="63.8022" width="90.9247" height="5.1957" rx="2.59785" fill="white"/>
</g>
<g id="womanChair">
<path id="Vector" d="M104.003 183.618L104.009 185.779V186.235H99.8437V185.55L99.841 177.102L99.8355 168.917V167.414L99.8328 161.322L99.8301 161.224L99.1057 140.711V140.694L98.3677 119.784V119.781L98.3487 119.213L94.7535 121.124L90.32 123.48L88.2145 124.599L85.2081 126.194L80.1397 128.89H80.137L53.8506 142.855L53.7963 185.779V186.235H49.7752L49.7589 185.779L48.424 144.485L9.65637 129.004L5.55387 127.365L3.80107 103.134C3.36152 97.061 6.61206 91.4931 11.7565 88.7811C13.0263 88.1126 14.4101 87.6181 15.8807 87.3327L21.8011 86.1833L36.5777 83.311L41.3585 82.3843L47.6073 81.1697L50.0709 80.6914L54.1219 79.9033L54.4882 79.8327L55.6305 79.6099L56.0375 79.5311L56.6995 79.4034L57.1662 80.2294C57.1689 80.2294 57.1689 80.2322 57.1689 80.2349L59.9148 85.1153L60.4086 85.9958L60.4113 85.9985L62.7909 90.224C62.7909 90.224 62.7936 90.2267 62.7936 90.2295L65.1107 94.3491L69.6582 95.2539L71.8994 95.6996L85.7915 98.4632L87.623 98.83H87.6257L92.26 99.7512L93.4864 99.9958L99.2142 101.134L99.2576 101.143L101.8 101.648L106.082 102.501L103.941 161.322L103.981 175.662V175.665L104.003 183.618H104.003Z" fill="#3F3D56"/>
<g id="Group">
<path id="Vector_2" d="M32.9256 70.2647C32.3178 69.118 30.5705 66.6642 28.5572 63.9087C28.1828 63.3951 27.8002 62.8734 27.4149 62.3462C26.7284 61.4142 26.0311 60.4658 25.3555 59.5419C24.9241 58.9332 24.0803 58.7892 23.4725 59.2185L19.4242 62.0881C18.8165 62.5174 18.67 63.3625 19.1014 63.9712L20.3196 65.6968L20.6398 66.1506L21.1119 66.8191L21.679 67.6207V67.6234L21.8391 67.8462L22.4034 68.6479L22.7155 69.0881L25.4478 72.9577L26.6742 74.6941C27.1029 75.3028 27.9467 75.4468 28.5545 75.0175L32.0763 72.5202L32.5729 72.1696L32.6027 72.1479C33.2105 71.7185 33.357 70.8734 32.9256 70.2647V70.2647Z" fill="#3F3D56"/>
<path id="Vector_3" d="M28.5518 63.849L27.4963 62.3571C27.4773 62.3299 27.4421 62.3245 27.4177 62.3435L27.4149 62.3462C27.3905 62.3625 27.3851 62.3951 27.4041 62.4223L28.4596 63.9169C28.4758 63.9413 28.5111 63.9468 28.5383 63.9305C28.5464 63.925 28.5518 63.9169 28.5573 63.9087C28.5654 63.8897 28.5654 63.868 28.5518 63.849H28.5518Z" fill="#3F3D56"/>
<path id="Vector_4" d="M25.2498 59.6158L32.8216 70.339C33.1955 70.8685 33.0899 71.5932 32.5932 71.9954L32.593 71.9955C32.5856 72.0015 32.5783 72.0074 32.5705 72.0132C32.5572 72.0237 32.5437 72.0336 32.5297 72.0435C32.5297 72.0435 32.4758 72.0761 32.3771 72.1355C32.2776 72.1955 32.1324 72.2825 31.951 72.3904C31.8967 72.4229 31.8392 72.4569 31.7786 72.4929C31.6578 72.5644 31.5252 72.6429 31.3825 72.7265C31.3258 72.76 31.2668 72.7944 31.2067 72.8296C30.8997 73.0096 30.5549 73.2101 30.1896 73.419C30.128 73.4546 30.0658 73.4903 30.003 73.526C29.9864 73.5353 26.8659 74.7448 26.7776 74.6197L19.2057 63.8965C18.8163 63.345 18.947 62.582 19.4977 62.192L20.0928 61.7704C20.1879 61.7031 20.3168 61.7231 20.392 61.8124C20.3972 61.8182 20.4023 61.824 20.4079 61.8295C20.4926 61.9127 20.6269 61.9173 20.7239 61.8487L22.8159 60.3669C22.9129 60.2983 22.9533 60.1699 22.9032 60.0622C22.8999 60.0551 22.8961 60.0483 22.8924 60.0415C22.8335 59.9407 22.8575 59.8123 22.9526 59.745L23.5478 59.3234C24.0985 58.9334 24.8603 59.0643 25.2498 59.6158H25.2498Z" fill="#027BFF"/>
<path id="Vector_5" d="M20.6371 66.0962L20.3712 65.7212C20.3603 65.7049 20.3413 65.6941 20.3196 65.6968C20.3115 65.6968 20.3006 65.7022 20.2925 65.7076C20.2681 65.7267 20.2599 65.762 20.2789 65.7865L20.5421 66.1614C20.5611 66.1859 20.5964 66.1941 20.6235 66.175C20.6317 66.1696 20.6371 66.1614 20.6398 66.1506C20.6479 66.1343 20.6479 66.1125 20.6371 66.0962L20.6371 66.0962Z" fill="#3F3D56"/>
<path id="Vector_6" d="M21.6736 67.5664L21.1635 66.8408C21.1499 66.8245 21.1309 66.8163 21.112 66.8191C21.1011 66.8191 21.0902 66.8218 21.0848 66.8272C21.0577 66.8462 21.0522 66.8816 21.0712 66.9087L21.5813 67.6316C21.6003 67.656 21.6356 67.6642 21.66 67.6451C21.6682 67.6397 21.6736 67.6316 21.679 67.6234V67.6207C21.6872 67.6044 21.6872 67.5827 21.6736 67.5663V67.5664Z" fill="#3F3D56"/>
<path id="Vector_7" d="M22.398 68.5935L21.8879 67.868C21.8743 67.8517 21.8553 67.8435 21.8391 67.8462C21.8282 67.8462 21.8173 67.849 21.8092 67.8544C21.7821 67.8734 21.7766 67.9087 21.7956 67.9359L22.3057 68.6587C22.3247 68.6832 22.36 68.6913 22.3844 68.6723C22.3926 68.6669 22.4007 68.6587 22.4034 68.6479C22.4116 68.6316 22.4116 68.6098 22.398 68.5935V68.5935Z" fill="#3F3D56"/>
<path id="Vector_8" d="M20.1426 61.9804L19.3503 62.5416C19.3181 62.5644 19.3104 62.609 19.3332 62.6412C19.3559 62.6735 19.4005 62.6811 19.4327 62.6583L20.225 62.0971C20.2572 62.0743 20.2648 62.0297 20.2421 61.9975C20.2193 61.9653 20.1748 61.9576 20.1426 61.9804Z" fill="#E6E6E6"/>
<path id="Vector_9" d="M23.2318 59.9418C23.2948 59.9418 23.346 59.8906 23.346 59.8275C23.346 59.7643 23.2948 59.7131 23.2318 59.7131C23.1687 59.7131 23.1176 59.7643 23.1176 59.8275C23.1176 59.8906 23.1687 59.9418 23.2318 59.9418Z" fill="#E6E6E6"/>
<path id="Vector_10" d="M23.4882 59.7603C23.5513 59.7603 23.6024 59.7091 23.6024 59.6459C23.6024 59.5828 23.5513 59.5316 23.4882 59.5316C23.4251 59.5316 23.374 59.5828 23.374 59.6459C23.374 59.7091 23.4251 59.7603 23.4882 59.7603Z" fill="#E6E6E6"/>
<path id="Vector_11" d="M23.7445 59.5787C23.8076 59.5787 23.8587 59.5275 23.8587 59.4644C23.8587 59.4012 23.8076 59.35 23.7445 59.35C23.6815 59.35 23.6304 59.4012 23.6304 59.4644C23.6304 59.5275 23.6815 59.5787 23.7445 59.5787Z" fill="#E6E6E6"/>
</g>
<path id="Vector_12" d="M54.1219 66.224H38.3848V81.1697H54.1219V66.224Z" fill="#2F2E41"/>
<path id="Vector_13" d="M27.2638 71.0747C26.7707 71.8768 26.1375 72.5009 25.4838 72.8889L21.268 80.827L17.5551 78.7074L22.2314 70.8832C22.2831 70.1239 22.5544 69.2768 23.0476 68.4747C24.1741 66.6423 26.0312 65.739 27.1955 66.4569C28.3598 67.1749 28.3903 69.2424 27.2638 71.0747V71.0747Z" fill="#A0616A"/>
<g id="Group_2">
<path id="Vector_14" d="M98.8105 177.308L102.195 176.629L100.668 161.056L95.673 162.058L98.8105 177.308Z" fill="#A0616A"/>
<path id="Vector_15" d="M111.943 181.74C112.071 182.31 111.771 182.862 111.273 182.975L104.59 184.481C104.59 184.481 103.337 181.981 100.4 181.446L101.066 185.275L97.6181 186.052L96.6676 179.868C96.6676 179.868 95.0133 176.818 96.5544 174.721C98.0956 172.624 96.5963 173.206 96.5963 173.206L96.5029 169.267L101.851 168.706L103.218 174.614L107.066 179.917L111.187 180.916C111.553 181.005 111.851 181.329 111.943 181.74H111.943V181.74Z" fill="#2F2E41"/>
</g>
<path id="Vector_16" d="M40.4198 97.6099L40.6911 99.5121C40.6911 99.5121 46.389 105.762 47.7457 108.48L64.2038 100.327L61.3122 93.5338L40.4198 97.6099V97.6099Z" fill="#A0616A"/>
<path id="Vector_17" d="M61.0408 99.7839C61.0408 99.7839 45.6626 104.132 46.9755 108.48C48.2883 112.827 49.0991 114.613 49.0991 114.613C49.0991 114.613 46.1177 121.251 55.3429 124.24C64.5681 127.23 84.3752 129.404 84.3752 129.404L96.178 168.398L101.74 166.904L97.2249 121.999L75.1499 114.186L76.5066 106.034L71.894 107.936L64.2038 99.4126L61.0408 99.7838V99.7839Z" fill="#E6E6E6"/>
<g id="Group_3">
<path id="Vector_18" d="M84.0212 137.8L87.3053 138.866L93.5797 124.535L88.7333 122.962L84.0212 137.8Z" fill="#A0616A"/>
<path id="Vector_19" d="M93.3106 148.099C93.144 148.659 92.6125 148.994 92.1234 148.848L85.5586 146.887C85.5586 146.887 85.687 144.094 83.3863 142.188L82.0969 145.853L78.7103 144.842L80.9017 138.983C80.9017 138.983 80.9486 135.512 83.3171 134.438C85.6856 133.364 84.0939 133.137 84.0939 133.137L85.9363 129.656L90.8743 131.787L89.1815 137.61L89.9474 144.12L93.0534 147.01C93.3299 147.267 93.4309 147.695 93.3106 148.099L93.3106 148.099V148.099Z" fill="#2F2E41"/>
</g>
<path id="Vector_20" d="M70.5619 108.48L76.5065 106.034L90.3444 97.0665C90.3444 97.0665 100.926 88.589 101.74 100.029C102.554 111.469 94.957 129.132 94.957 129.132L85.1891 126.414L86.1816 114.305L73.3863 118.126L70.5619 108.48V108.48Z" fill="#E6E6E6"/>
<path id="Vector_21" d="M55.5715 78.2736L63.0758 98.561L73.2506 109.838L83.2898 103.316L71.69 100.327L71.9976 93.5338L55.5715 78.2736Z" fill="#2F2E41"/>
<path id="Vector_22" d="M11.5016 185.652V186.235H7.46088L7.45048 185.652L6.0527 110.982H11.2865L11.2969 113.077L11.5016 185.652Z" fill="#3F3D56"/>
<path id="Vector_23" d="M95.5874 104.552C94.7433 104.136 94.0629 103.564 93.6152 102.949L85.3244 99.5002L87.0786 95.5972L95.2998 99.5162C96.0594 99.4956 96.9272 99.6856 97.7713 100.101C99.6997 101.05 100.774 102.816 100.171 104.045C99.5678 105.274 97.5158 105.501 95.5874 104.552V104.552V104.552Z" fill="#A0616A"/>
<path id="Vector_24" d="M51.8156 77.2294L53.7331 76.396C53.7331 76.396 61.3122 78.5582 61.9905 79.796C62.6688 81.0338 66.4674 86.1969 66.4674 86.1969L93.3291 97.6099L90.8871 102.501L71.894 97.6099L61.5835 86.7403L51.8156 77.2294V77.2294Z" fill="#2F2E41"/>
<path id="Vector_25" d="M48.8309 75.599L39.877 75.0555L35.2644 77.5012L40.4197 100.327C40.4197 100.327 55.6014 93.8056 62.2553 95.8436C62.2553 95.8436 64.6621 89.5985 60.4094 85.9955L53.4435 76.686L48.8309 75.599V75.599Z" fill="#027BFF"/>
<path id="Vector_26" d="M39.3344 76.4142L39.2481 75.5328L30.3805 78.8599C30.3805 78.8599 27.1246 81.3055 26.0392 82.3925C24.9539 83.4794 21.698 85.6534 21.698 85.6534L24.4113 75.8707L20.07 73.9686C20.07 73.9686 7.04615 91.0882 13.2867 92.4469C19.5273 93.8056 30.3805 91.3599 30.3805 91.3599L30.9232 121.523L53.5792 122.202L44.2183 90.8164L39.3344 76.4142V76.4142Z" fill="#2F2E41"/>
<path id="Vector_27" d="M46.0869 73.8385C50.3246 73.8385 53.7599 70.3979 53.7599 66.1538C53.7599 61.9096 50.3246 58.4691 46.0869 58.4691C41.8491 58.4691 38.4138 61.9096 38.4138 66.1538C38.4138 70.3979 41.8491 73.8385 46.0869 73.8385Z" fill="#A0616A"/>
<path id="Vector_28" d="M42.4547 53.7239C37.5507 54.4841 37.7844 56.3091 36.2142 57.2565C33.4477 58.9257 32.3561 63.7456 33.8172 66.9262C34.2076 67.776 35.0306 68.9353 34.6312 70.1871C34.3245 71.148 33.4405 71.7149 33.2745 71.8175C31.9158 72.6578 32.8033 71.6582 32.1892 72.361C31.5114 73.1368 32.5614 74.2326 31.9179 75.6219C31.3474 76.8535 30.1713 76.7496 30.0186 77.5241C29.7555 78.8577 32.7747 81.5393 35.9878 81.3284C38.8487 81.1407 40.974 78.7184 41.6858 76.4371C42.1625 74.909 42.3681 72.2804 41.1431 71.0023C40.9713 70.823 40.5016 70.3889 40.0578 69.6436C39.7066 69.0538 39.2442 68.2774 39.5151 67.7414C39.8037 67.1704 40.622 67.471 41.1431 66.9262C41.8498 66.1874 41.0102 64.9392 41.1431 63.6653C41.3683 61.5083 44.42 58.9139 47.655 59.3175C51.3249 59.7753 52.671 63.772 52.8103 64.2088C53.0989 65.114 53.0931 65.9898 53.0816 67.7414C53.0651 70.2551 53.0547 71.8306 52.2676 73.448C51.1355 75.7743 49.6932 75.5229 49.283 77.2523C48.6434 79.9487 51.6522 82.6567 51.9963 82.9589C54.5477 85.1989 58.4012 85.8724 59.0509 84.861C59.6362 83.9497 57.0663 82.532 57.1516 79.698C57.2254 77.242 59.21 76.4933 58.7795 74.8067C58.3058 72.95 55.7776 73.3736 54.7096 71.274C53.7127 69.3143 55.5499 68.227 55.2523 64.2088C55.1893 63.3588 54.9227 60.9192 53.3529 58.5023C52.6614 57.4375 51.958 56.3545 50.6396 55.7849C49.1638 55.1471 45.0489 53.3218 42.4547 53.7239V53.7239Z" fill="#2F2E41"/>
<path id="Vector_29" d="M39.1988 60.5174C39.3978 62.2002 41.9208 63.0248 42.9974 63.2348C43.4533 63.3238 44.9941 63.6244 46.5247 62.9631C47.0904 62.7187 47.2965 62.4976 47.8813 62.4196C48.6731 62.3141 49.072 62.6157 50.3233 62.9631C51.7147 63.3494 52.4105 63.5426 52.7653 63.2348C53.3453 62.7317 52.8997 61.0857 52.2226 59.974C50.9706 57.9183 48.6788 57.2817 47.61 56.9848C46.3888 56.6456 43.9107 55.9572 41.6407 57.2566C41.3373 57.4303 38.9965 58.8078 39.1988 60.5174V60.5174Z" fill="#2F2E41"/>
<g id="Group_4">
<path id="Vector_30" d="M98.5395 104.604C94.9187 106.295 93.4794 104.087 93.4794 104.087L93.4809 103.429L93.4917 94.9614C96.0137 93.3128 100.27 95.7072 100.27 95.7072L98.6321 104.128L98.5395 104.604V104.604Z" fill="#3F3D56"/>
<path id="Vector_31" d="M99.7109 94.159C99.7109 94.159 95.9673 92.5537 93.9454 93.7628C93.9454 93.7628 91.8369 95.9029 93.4881 96.5251L99.9883 97.1559C99.9883 97.1559 101.467 96.1632 100.822 95.3464C100.177 94.5296 99.7109 94.159 99.7109 94.159V94.159Z" fill="#027BFF"/>
</g>
<path id="Vector_32" d="M133 186.444C133 186.751 132.916 187 132.813 187H3V185.889H132.813C132.916 185.889 133 186.138 133 186.444V186.444Z" fill="#E6E6E6"/>
</g>
</g>
<defs>
<clipPath id="clip0_163_10">
<rect width="200" height="190" fill="white"/>
</clipPath>
</defs>
</svg>
