<svg width="200" height="132" viewBox="0 0 200 132" fill="none" xmlns="http://www.w3.org/2000/svg">
<g id="triangles" clip-path="url(#clip0_155_4)">
<g id="lightGroup">
<path id="light1" opacity="0.7" d="M76 64.2679C77.3333 65.0377 77.3333 66.9623 76 67.7321L14.5 103.239C13.1667 104.009 11.5 103.047 11.5 101.507V30.493C11.5 28.9534 13.1667 27.9911 14.5 28.7609L76 64.2679Z" fill="#FF689B"/>
</g>
<g id="darkGroup">
<path id="dark1" opacity="0.7" d="M122 64.7679C123.333 65.5377 123.333 67.4623 122 68.2321L59.75 104.172C58.4167 104.942 56.75 103.98 56.75 102.44V30.5599C56.75 29.0203 58.4167 28.0581 59.75 28.8279L122 64.7679Z" fill="#027BFF"/>
<path id="dark2" opacity="0.7" d="M76 64.2679C77.3333 65.0377 77.3333 66.9623 76 67.7321L14.5 103.239C13.1667 104.009 11.5 103.047 11.5 101.507V30.493C11.5 28.9534 13.1667 27.9911 14.5 28.7609L76 64.2679Z" fill="#027BFF"/>
</g>
<g id="womanRunning">
<path id="Vector" d="M179.628 131.965C190.879 131.965 200 127.006 200 120.89C200 114.773 190.879 109.815 179.628 109.815C168.376 109.815 159.255 114.773 159.255 120.89C159.255 127.006 168.376 131.965 179.628 131.965Z" fill="white"/>
<path id="Vector_2" d="M153.366 24.8766L153.123 27.0881L152.98 28.3967L152.275 34.7977C152.275 34.7977 151.737 35.7958 150.776 37.1951C149.177 39.5207 146.4 42.954 142.952 44.7609C137.428 47.6554 135.25 26.8672 135.25 26.8672C135.25 26.8672 134.056 18.8072 136.989 18.5114C139.921 18.2156 138.913 21.6873 139.135 27.3992C139.358 33.1112 143.188 37.9428 143.188 37.9428C143.188 37.9428 147.265 32.2864 149.057 28.4911C149.99 26.5139 151.121 25.6154 151.989 25.2107L151.992 25.2096C152.278 25.0723 152.582 24.9737 152.894 24.9161C153.049 24.8855 153.208 24.8722 153.366 24.8766V24.8766Z" fill="#FFB8B8"/>
<path id="Vector_3" d="M144.293 33.9732L153.285 39.2004L158.181 30.4763L157.075 26.5416C155.796 25.5404 154.199 25.0332 152.576 25.1128C150.954 25.1923 149.414 25.8533 148.239 26.9748L144.293 33.9732Z" fill="#027BFF"/>
<path id="Vector_4" d="M147.584 2.81136C142.379 4.96304 140.095 11.3901 142.483 17.1665L145.517 24.5055L147.774 23.5725L147.957 20.3131L148.754 23.1673L163.262 17.1699L163.428 14.2068L164.153 16.8016L165.787 16.1263L163.405 10.3639C160.657 3.71672 153.574 0.335334 147.584 2.81136Z" fill="#2F2E41"/>
<path id="Vector_5" d="M152.758 40.4018L153.674 47.0494L168.068 40.4881L165.758 35.639C165.758 35.639 153.614 37.2988 152.758 40.4018Z" fill="#A0616A"/>
<path id="Vector_6" d="M148.592 70.2279L157.602 78.7222L159.773 71.4101L153.101 65.615L148.592 70.2279Z" fill="#FFB8B8"/>
<path id="Vector_7" d="M176.186 103.726L181.669 115.511L187.409 113.139L181.665 101.461L176.186 103.726Z" fill="#FFB8B8"/>
<path id="Vector_8" d="M149.02 57.2211L155.187 64.7521L176.357 104.877C176.357 104.877 180.441 104.411 182.51 102.028L180.659 96.0726L168.114 62.7687C168.114 62.7687 171.992 58.1107 169.961 54.6739C167.929 51.2371 164.576 46.8194 164.576 46.8194L149.02 57.2211Z" fill="#2F2E41"/>
<path id="Vector_9" d="M181.265 112.318L179.7 112.965C179.7 112.965 177.206 119.494 175.857 120.663C174.507 121.832 168.253 129.611 175.098 127.697C181.944 125.784 184.717 120.666 184.717 120.666C184.717 120.666 187.343 121.108 189.781 118.878C192.22 116.648 189.36 114.165 189.36 114.165C189.36 114.165 185.931 109.995 185.892 110.055C185.854 110.116 185.259 113.111 181.265 112.318Z" fill="#2F2E41"/>
<path id="Vector_10" d="M152.469 19.7492C155.783 18.3792 157.359 14.5821 155.989 11.2681C154.619 7.95407 150.822 6.37811 147.508 7.74807C144.194 9.11803 142.618 12.9151 143.988 16.2291C145.358 19.5432 149.155 21.1191 152.469 19.7492Z" fill="#FFB8B8"/>
<path id="Vector_11" d="M162.094 17.9085L160.285 21.3506L160.042 21.8116L161.075 25.0502L150.9 29.2563C150.9 29.2563 151.791 27.4798 152.565 25.7026C152.58 25.6631 152.595 25.6199 152.615 25.5783C152.719 25.3365 152.811 25.1152 152.894 24.9161C152.937 24.8066 152.98 24.7033 153.017 24.6085C153.078 24.4521 153.138 24.302 153.198 24.1519C153.199 24.1499 153.199 24.1477 153.199 24.1456C153.35 23.7558 153.479 23.3577 153.585 22.9532L153.587 22.9495C153.615 22.8406 153.638 22.7302 153.655 22.619C153.898 20.9909 150.994 19.137 150.994 19.137L155.547 13.8945C156.917 16.6395 160.09 17.5394 161.453 17.8068C161.851 17.8835 162.094 17.9085 162.094 17.9085Z" fill="#FFB8B8"/>
<path id="Vector_12" d="M194.301 55.9147C190.819 58.576 187.323 50.8571 187.323 50.8571L177.565 42.3827C175.504 40.592 173.729 38.496 172.302 36.1676L167.883 28.9565L167.694 29.5568L167.695 29.5594L167.163 30.1705L160.392 25.3328L158.494 23.9789L157.631 21.8918L160.79 18.4478L162.355 17.8007C162.355 17.8007 162.387 17.7815 162.444 17.7514C163.133 17.3781 167.689 15.1281 169.82 19.6023C170.657 21.3582 171.263 22.8486 171.697 24.0356C172.882 27.3251 174.525 30.4314 176.577 33.2632C177.321 34.2822 178.029 35.1417 178.549 35.5445C180.347 36.9393 189.931 49.7786 189.931 49.7786C189.931 49.7786 197.783 53.2534 194.301 55.9147Z" fill="#FFB8B8"/>
<path id="Vector_13" d="M153.585 22.9532C153.587 22.9862 153.56 23.2691 153.017 24.6085C153.242 24.0695 153.432 23.5166 153.585 22.9532Z" fill="#D0CDE1"/>
<path id="Vector_14" d="M167.806 29.1408L167.695 29.5594L167.615 38.17C167.615 38.17 164.203 44.3425 160.335 45.3306C158.136 45.8249 154.013 43.6587 153.645 45.8824L152.111 38.8364L150.776 37.1951C150.62 37.0029 150.444 36.7916 150.25 36.5511C148.389 34.2657 150.072 30.2095 150.072 30.2095L151.989 25.2107L151.992 25.2096C152.278 25.0723 152.582 24.9737 152.894 24.9161C152.811 25.1152 152.719 25.3365 152.615 25.5783C152.595 25.62 152.58 25.6631 152.565 25.7026C151.988 27.1358 152.625 27.2055 153.123 27.0881C153.287 27.048 153.447 26.9911 153.6 26.9186C154.752 26.6254 156.739 24.6858 158.157 23.1649C159.123 22.1305 159.826 21.2899 159.826 21.2899L161.241 18.2612L161.453 17.8068C161.851 17.8835 162.094 17.9085 162.094 17.9085L162.355 17.8007C162.355 17.8007 162.387 17.7814 162.444 17.7514L161.621 19.1239C161.211 19.8074 160.978 20.5825 160.944 21.3788C160.91 22.1751 161.076 22.9672 161.426 23.6831V23.6831L167.806 29.1408Z" fill="#027BFF"/>
<path id="Vector_15" d="M156.661 42.454L153.463 45.5202C153.463 45.5202 129.441 46.0695 129.007 53.886C128.572 61.7025 149.131 71.5322 149.131 71.5322L154.207 66.074L148.362 59.3257C148.362 59.3257 168.779 65.8542 172.128 56.2218C175.478 46.5893 167.186 38.3547 167.186 38.3547C167.186 38.3547 161.997 36.888 156.661 42.454Z" fill="#2F2E41"/>
<path id="Vector_16" d="M157.459 75.421L155.866 78.2179C155.866 78.2179 161.405 85.7036 161.161 87.3316C160.918 88.9596 160.862 93.2592 163.624 91.812C166.386 90.3648 167.684 84.6354 167.297 82.9622C166.911 81.289 166.796 75.838 166.796 75.838C166.796 75.838 166.907 67.2388 164.451 67.9486C161.995 68.6583 158.183 70.0297 158.183 70.0297L157.459 75.421Z" fill="#2F2E41"/>
<path id="Vector_17" d="M151.454 4.58496C150.749 4.16343 149.956 3.91006 149.137 3.8445C148.318 3.77895 147.495 3.90298 146.732 4.20697L146.547 4.28345C142.979 5.75822 141.421 10.182 143.068 14.1642L144.263 13.67L143.849 12.1208L144.739 13.4732L151.829 10.5424L151.909 9.05371L152.274 10.3583L153.669 9.7817C155.656 12.7449 156.057 16.3638 154.872 20.6382L157.248 19.6561L157.408 16.6786L158.139 19.2877L162.668 17.4155L161.195 11.3285C159.425 7.04577 155.435 4.44276 151.454 4.58496Z" fill="#2F2E41"/>
<path id="Vector_18" d="M178.27 27.1234L164.561 32.7905L160.164 22.1543L161.966 17.8114C163.565 16.8431 165.459 16.4826 167.301 16.7959C169.143 17.1091 170.812 18.0751 172 19.5172L178.27 27.1234Z" fill="#027BFF"/>
</g>
</g>
<defs>
<clipPath id="clip0_155_4">
<rect width="200" height="131.818" fill="white"/>
</clipPath>
</defs>
</svg>
