<svg width="200" height="200" viewBox="0 0 200 200" fill="none" xmlns="http://www.w3.org/2000/svg">
<g id="clipboard">
<g id="clipboardGroup">
<path id="Ellipse 1" d="M110 28C110 33.5228 105.523 38 100 38C94.4772 38 90 33.5228 90 28C90 22.4772 94.4772 18 100 18C105.523 18 110 22.4772 110 28ZM93 28C93 31.866 96.134 35 100 35C103.866 35 107 31.866 107 28C107 24.134 103.866 21 100 21C96.134 21 93 24.134 93 28Z" fill="#D9D9D9"/>
<rect id="Rectangle 1" x="51" y="36" width="97" height="128" fill="white"/>
<rect id="Rectangle 2" x="56" y="40" width="88" height="120" fill="#DAEBF5"/>
<rect id="Rectangle 3" x="62" y="66" width="43" height="4" rx="2" fill="#ACACAC"/>
<rect id="Rectangle 10" x="62" y="106" width="43" height="4" rx="2" fill="#ACACAC"/>
<rect id="Rectangle 8" x="62" y="86" width="43" height="4" rx="2" fill="#ACACAC"/>
<rect id="Rectangle 11" x="62" y="126" width="43" height="4" rx="2" fill="#ACACAC"/>
<rect id="Rectangle 7" x="114" y="61" width="15" height="15" rx="4" fill="#D9D9D9"/>
<rect id="Rectangle 14" x="80" y="28" width="40" height="17" fill="#ACACAC"/>
<rect id="Rectangle 12" x="114" y="101" width="15" height="15" rx="4" fill="#D9D9D9"/>
<rect id="Rectangle 9" x="114" y="81" width="15" height="15" rx="4" fill="#D9D9D9"/>
<rect id="Rectangle 13" x="114" y="121" width="15" height="15" rx="4" fill="#D9D9D9"/>
<rect id="Rectangle 15" x="80" y="42" width="40" height="3" fill="#8D8D8D"/>
</g>
<g id="checkedGroup">
<g id="checkbox3">
<rect id="checkboxBg" x="114" y="61" width="15" height="15" rx="4" fill="white"/>
<path id="Vector" fill-rule="evenodd" clip-rule="evenodd" d="M117.75 61C116.755 61 115.802 61.3951 115.098 62.0983C114.395 62.8016 114 63.7554 114 64.75V72.25C114 73.2446 114.395 74.1984 115.098 74.9017C115.802 75.6049 116.755 76 117.75 76H125.25C126.245 76 127.198 75.6049 127.902 74.9017C128.605 74.1984 129 73.2446 129 72.25V64.75C129 63.7554 128.605 62.8016 127.902 62.0983C127.198 61.3951 126.245 61 125.25 61H117.75ZM124.297 67.513C124.365 67.4411 124.417 67.3566 124.452 67.2644C124.487 67.1722 124.503 67.0741 124.5 66.9756C124.497 66.8771 124.474 66.7802 124.433 66.6905C124.393 66.6007 124.335 66.5199 124.263 66.4525C124.191 66.3851 124.107 66.3326 124.014 66.2979C123.922 66.2631 123.824 66.2469 123.726 66.2501C123.627 66.2533 123.53 66.2759 123.44 66.3165C123.351 66.3572 123.27 66.4151 123.203 66.487L120.89 68.9545L119.748 67.9398C119.598 67.8153 119.406 67.754 119.212 67.7686C119.018 67.7833 118.837 67.8728 118.708 68.0182C118.579 68.1637 118.511 68.3537 118.519 68.5481C118.527 68.7426 118.611 68.9262 118.752 69.0602L120.44 70.5602C120.586 70.69 120.776 70.7576 120.971 70.7488C121.167 70.7399 121.351 70.6554 121.484 70.513L124.297 67.513H124.297Z" fill="#FF689B"/>
</g>
<g id="checkbox2">
<rect id="checkboxBg_2" x="114" y="81" width="15" height="15" rx="4" fill="white"/>
<path id="Vector_2" fill-rule="evenodd" clip-rule="evenodd" d="M117.75 81C116.755 81 115.802 81.3951 115.098 82.0983C114.395 82.8016 114 83.7554 114 84.75V92.25C114 93.2446 114.395 94.1984 115.098 94.9017C115.802 95.6049 116.755 96 117.75 96H125.25C126.245 96 127.198 95.6049 127.902 94.9017C128.605 94.1984 129 93.2446 129 92.25V84.75C129 83.7554 128.605 82.8016 127.902 82.0983C127.198 81.3951 126.245 81 125.25 81H117.75ZM124.297 87.513C124.365 87.4411 124.417 87.3566 124.452 87.2644C124.487 87.1722 124.503 87.0741 124.5 86.9756C124.497 86.8771 124.474 86.7802 124.433 86.6905C124.393 86.6007 124.335 86.5199 124.263 86.4525C124.191 86.3851 124.107 86.3326 124.014 86.2979C123.922 86.2631 123.824 86.2469 123.726 86.2501C123.627 86.2533 123.53 86.2759 123.44 86.3165C123.351 86.3572 123.27 86.4151 123.203 86.487L120.89 88.9545L119.748 87.9398C119.598 87.8153 119.406 87.754 119.212 87.7686C119.018 87.7833 118.837 87.8728 118.708 88.0182C118.579 88.1637 118.511 88.3537 118.519 88.5481C118.527 88.7426 118.611 88.9262 118.752 89.0602L120.44 90.5602C120.586 90.69 120.776 90.7576 120.971 90.7488C121.167 90.7399 121.351 90.6554 121.484 90.513L124.297 87.513H124.297Z" fill="#FF689B"/>
</g>
<g id="checkbox1">
<path id="checkboxBg_3" d="M114 105C114 102.791 115.791 101 118 101H125C127.209 101 129 102.791 129 105V112C129 114.209 127.209 116 125 116H118C115.791 116 114 114.209 114 112V105Z" fill="white"/>
<path id="Vector_3" fill-rule="evenodd" clip-rule="evenodd" d="M117.75 101C116.755 101 115.802 101.395 115.098 102.098C114.395 102.802 114 103.755 114 104.75V112.25C114 113.245 114.395 114.198 115.098 114.902C115.802 115.605 116.755 116 117.75 116H125.25C126.245 116 127.198 115.605 127.902 114.902C128.605 114.198 129 113.245 129 112.25V104.75C129 103.755 128.605 102.802 127.902 102.098C127.198 101.395 126.245 101 125.25 101H117.75ZM124.297 107.513C124.365 107.441 124.417 107.357 124.452 107.264C124.487 107.172 124.503 107.074 124.5 106.976C124.497 106.877 124.474 106.78 124.433 106.69C124.393 106.601 124.335 106.52 124.263 106.453C124.191 106.385 124.107 106.333 124.014 106.298C123.922 106.263 123.824 106.247 123.726 106.25C123.627 106.253 123.53 106.276 123.44 106.317C123.351 106.357 123.27 106.415 123.203 106.487L120.89 108.954L119.748 107.94C119.598 107.815 119.406 107.754 119.212 107.769C119.018 107.783 118.837 107.873 118.708 108.018C118.579 108.164 118.511 108.354 118.519 108.548C118.527 108.743 118.611 108.926 118.752 109.06L120.44 110.56C120.586 110.69 120.776 110.758 120.971 110.749C121.167 110.74 121.351 110.655 121.484 110.513L124.297 107.513H124.297Z" fill="#FF689B"/>
</g>
</g>
</g>
</svg>
