<svg width="403" height="328" viewBox="0 0 403 328" fill="none" xmlns="http://www.w3.org/2000/svg">
<g clip-path="url(#clip0_204_2)">
<path d="M118.124 309.094C119.662 310.554 121.551 311.593 123.608 312.112C125.665 312.631 127.821 312.612 129.868 312.057C135.115 310.568 138.676 305.839 141.837 301.397L151.189 288.263L143.307 289.707C137.639 290.746 131.831 291.836 126.894 294.807C121.958 297.778 118.004 303.082 118.317 308.831" fill="#E6E6E6"/>
<path d="M110.798 326.787C112.18 322.078 113.571 317.305 116.011 313.013C118.179 309.202 121.14 305.858 125.048 303.779C127.12 302.679 129.369 301.948 131.692 301.62C132.299 301.534 132.397 302.477 131.794 302.562C127.771 303.136 124.034 304.972 121.122 307.805C117.895 310.96 115.777 315.028 114.212 319.214C113.264 321.746 112.5 324.339 111.739 326.932C111.716 327.054 111.648 327.164 111.547 327.237C111.446 327.311 111.321 327.343 111.197 327.328C111.073 327.308 110.962 327.24 110.888 327.139C110.813 327.038 110.782 326.911 110.8 326.787L110.798 326.787Z" fill="#F2F2F2"/>
<path d="M262.999 137.143C263.898 136.927 264.833 136.91 265.738 137.094C266.644 137.278 267.498 137.658 268.241 138.207C268.983 138.756 269.597 139.461 270.037 140.273C270.477 141.084 270.734 141.983 270.79 142.904L292.413 148.977L283.59 156.612L264.409 149.674C262.853 149.664 261.355 149.085 260.198 148.045C259.042 147.006 258.307 145.579 258.133 144.034C257.959 142.49 258.359 140.935 259.256 139.665C260.153 138.395 261.485 137.498 262.999 137.143L262.999 137.143Z" fill="#FFB7B7"/>
<path d="M318.566 321.092L312.262 321.091L309.264 296.803L318.567 296.803L318.566 321.092Z" fill="#FFB7B7"/>
<path d="M320.173 327.196L299.849 327.195V326.938C299.85 324.842 300.683 322.832 302.167 321.35C303.65 319.868 305.662 319.035 307.76 319.035H307.76L320.173 319.036L320.173 327.196Z" fill="#2F2E41"/>
<path d="M355.499 321.092L349.196 321.091L346.197 296.803L355.499 296.803L355.499 321.092Z" fill="#FFB7B7"/>
<path d="M357.106 327.196L336.783 327.195V326.938C336.783 324.842 337.616 322.832 339.1 321.35C340.583 319.868 342.595 319.035 344.693 319.035H344.694L357.106 319.036L357.106 327.196Z" fill="#2F2E41"/>
<path d="M313.416 181.687L304.131 245.937L306.444 313.63L320.386 314.739L324.746 254.031L335.844 220.18L342.369 268.434L342.637 313.63L357.033 314.739L362.054 219.721L358.361 178.398L313.416 181.687Z" fill="#2F2E41"/>
<path d="M340.269 95.6644C348.381 95.6644 354.957 89.0946 354.957 80.9904C354.957 72.8861 348.381 66.3163 340.269 66.3163C332.157 66.3163 325.581 72.8861 325.581 80.9904C325.581 89.0946 332.157 95.6644 340.269 95.6644Z" fill="#FFB7B7"/>
<path d="M331.216 103.646L315.001 185.259C315.001 185.259 342.301 193.087 354.261 185.86C366.22 178.634 360.861 156.325 360.861 156.325L358.671 118.364L354.623 108.765L351.189 100.84L331.216 103.646Z" fill="#CBCBCB"/>
<path d="M326.47 161.577L332.071 102.062L327.591 105.329L311.929 110.411L310.857 152.312L299.901 207.412C299.901 207.412 307.732 222.679 317.438 197.422L326.47 161.577Z" fill="#2F2E41"/>
<path d="M319.467 116.678L311.929 110.411L294.988 147.178L276.083 143.041L275.19 154.195L302.58 165.025L321.246 139.064L319.467 116.678Z" fill="#2F2E41"/>
<path d="M348.791 148.55L350.902 100.113L358.671 106.123L372.545 109.987L370.511 148.55L373.439 208.387L358.893 212.99L354.809 175.232L348.791 148.55Z" fill="#2F2E41"/>
<path d="M349.724 187.541C349.887 186.632 350.247 185.77 350.78 185.016C351.312 184.261 352.003 183.632 352.805 183.173C353.607 182.715 354.5 182.437 355.421 182.36C356.342 182.283 357.268 182.409 358.135 182.729L372.39 165.387L375.843 176.527L361.776 191.287C361.142 192.706 360.009 193.844 358.591 194.485C357.174 195.125 355.57 195.224 354.085 194.762C352.599 194.3 351.335 193.31 350.531 191.979C349.728 190.648 349.441 189.069 349.724 187.541V187.541Z" fill="#FFB7B7"/>
<path d="M363.256 115.364L372.545 109.987L395.919 156.101L373.131 187.716L360.133 177.333L375.916 156.771L361.531 134.685L363.256 115.364Z" fill="#2F2E41"/>
<path d="M354.083 69.2592L354.795 67.8274L351.213 66.0489C351.213 66.0489 347.26 59.6238 340.108 61.4294C332.956 63.235 329.738 64.3156 329.738 64.3156L326.164 66.1122L327.958 67.8952L324.74 68.9758L326.89 70.0429L324.388 71.4792L325.735 78.8423C325.735 78.8423 327.971 73.2577 332.271 75.3918C336.57 77.526 344.434 74.2886 344.434 74.2886L351.267 87.499C351.267 87.499 352.676 82.8681 355.189 84.1029C355.189 84.103 361.61 73.8878 354.083 69.2592Z" fill="#2F2E41"/>
<path d="M264.865 90.7878H264.771L210.907 113.767L137.209 145.207C136.921 145.328 136.612 145.391 136.3 145.392C135.988 145.394 135.678 145.334 135.389 145.216L59.3543 113.701L4.16661 90.8252L4.08231 90.7878H3.98836C3.11758 90.7887 2.28275 91.1348 1.66702 91.7499C1.05129 92.3651 0.704949 93.1991 0.703979 94.0691V236.573C0.704951 237.443 1.05129 238.277 1.66702 238.893C2.28275 239.508 3.11758 239.854 3.98836 239.855H264.865C265.736 239.854 266.571 239.508 267.187 238.893C267.802 238.277 268.149 237.443 268.15 236.573V94.0691C268.149 93.1991 267.802 92.3651 267.187 91.7499C266.571 91.1348 265.736 90.7887 264.865 90.7878V90.7878Z" fill="white"/>
<path d="M265.099 91.7253C265.004 91.7254 264.91 91.696 264.832 91.6413L135.069 1.35568C134.674 1.0822 134.205 0.936041 133.725 0.936859C133.244 0.937677 132.775 1.08543 132.381 1.36025L3.55383 91.6404C3.45193 91.7116 3.3259 91.7395 3.20342 91.7179C3.08095 91.6964 2.97205 91.6271 2.90064 91.5254C2.82923 91.4237 2.80115 91.2978 2.82257 91.1754C2.84398 91.053 2.91314 90.9441 3.01486 90.8727L131.843 0.592592C132.394 0.207901 133.05 0.00110127 133.723 -3.18232e-06C134.396 -0.00110763 135.053 0.203534 135.606 0.586412L265.368 90.8718C265.45 90.9288 265.511 91.0106 265.544 91.105C265.576 91.1995 265.577 91.3018 265.547 91.397C265.517 91.4922 265.458 91.5754 265.377 91.6344C265.297 91.6935 265.199 91.7253 265.099 91.7253L265.099 91.7253Z" fill="#3F3D56"/>
<path d="M10.9153 94.9258L133.852 3.8997L257.722 101.403L140.186 171.014L76.3746 156.482L10.9153 94.9258Z" fill="#E6E6E6"/>
<path d="M81.7612 214.01H21.0274C20.6544 214.011 20.285 213.939 19.94 213.797C19.5951 213.655 19.2816 213.447 19.0173 213.184C18.753 212.921 18.5432 212.609 18.3998 212.265C18.2565 211.921 18.1824 211.552 18.1819 211.179C18.1813 210.807 18.2543 210.438 18.3966 210.093C18.539 209.749 18.7479 209.436 19.0114 209.172C19.2749 208.909 19.5878 208.699 19.9323 208.557C20.2768 208.414 20.6461 208.341 21.019 208.34H81.7612C82.1342 208.339 82.5036 208.412 82.8486 208.554C83.1935 208.695 83.507 208.904 83.7713 209.166C84.0356 209.429 84.2454 209.742 84.3887 210.086C84.5321 210.43 84.6062 210.798 84.6067 211.171C84.6073 211.544 84.5343 211.913 84.3919 212.257C84.2496 212.601 84.0407 212.914 83.7772 213.178C83.5137 213.442 83.2008 213.651 82.8563 213.794C82.5118 213.936 82.1425 214.01 81.7696 214.01H81.7612Z" fill="#027BFF"/>
<path d="M42.8173 201.822H21.0274C20.6544 201.823 20.285 201.751 19.94 201.609C19.5951 201.467 19.2816 201.259 19.0173 200.996C18.753 200.733 18.5432 200.421 18.3999 200.077C18.2565 199.733 18.1824 199.364 18.1819 198.992C18.1813 198.619 18.2543 198.25 18.3966 197.906C18.539 197.561 18.7479 197.248 19.0114 196.984C19.2749 196.721 19.5878 196.512 19.9323 196.369C20.2768 196.226 20.6461 196.153 21.019 196.153H42.8173C43.5692 196.152 44.2904 196.451 44.8225 196.981C45.3545 197.512 45.654 198.232 45.6551 198.983C45.6563 199.734 45.3589 200.455 44.8284 200.988C44.2979 201.52 43.5776 201.82 42.8258 201.822H42.8173Z" fill="#027BFF"/>
<path d="M135.581 145.626C135.119 145.626 134.662 145.537 134.235 145.362L58.4159 113.932V15.551C58.4169 14.6811 58.7633 13.8471 59.379 13.2319C59.9947 12.6168 60.8295 12.2707 61.7003 12.2697H207.153C208.024 12.2707 208.859 12.6168 209.475 13.2319C210.09 13.8471 210.437 14.6811 210.438 15.551V114.001L210.295 114.062L136.968 145.347C136.529 145.532 136.057 145.626 135.581 145.626V145.626Z" fill="#027BFF"/>
<path d="M264.161 90.7878H264.067L210.203 113.767L136.505 145.207C136.217 145.328 135.908 145.391 135.596 145.392C135.284 145.394 134.974 145.334 134.685 145.216L58.6504 113.701L3.46268 90.8252L3.37838 90.7878H3.28438C2.4136 90.7887 1.57877 91.1348 0.963042 91.7499C0.347311 92.3651 0.000968423 93.1991 0 94.0691V236.573C0.000968425 237.443 0.347311 238.277 0.963042 238.893C1.57877 239.508 2.4136 239.854 3.28438 239.855H264.161C265.032 239.854 265.867 239.508 266.483 238.893C267.098 238.277 267.445 237.443 267.446 236.573V94.0691C267.445 93.1991 267.098 92.3651 266.483 91.7499C265.867 91.1348 265.032 90.7887 264.161 90.7878ZM266.507 236.573C266.507 237.195 266.26 237.791 265.82 238.23C265.38 238.67 264.784 238.917 264.161 238.917H3.28438C2.66226 238.917 2.06568 238.67 1.62577 238.23C1.18585 237.791 0.938599 237.195 0.938351 236.573V94.0691C0.939202 93.463 1.17453 92.8807 1.59513 92.4439C2.01574 92.0071 2.58906 91.7496 3.19526 91.7253L58.6504 114.713L134.324 146.083C135.143 146.416 136.061 146.411 136.876 146.069L210.203 114.784L264.255 91.7253C264.86 91.7514 265.432 92.0096 265.852 92.4461C266.271 92.8827 266.506 93.464 266.507 94.0691L266.507 236.573Z" fill="#3F3D56"/>
<path d="M123.777 49.045H72.1649C71.1705 49.0432 70.2175 48.6474 69.515 47.9443C68.8124 47.2412 68.4178 46.2883 68.4178 45.2949C68.4178 44.3014 68.8124 43.3485 69.515 42.6454C70.2175 41.9424 71.1705 41.5465 72.1649 41.5448H123.777C124.772 41.5465 125.725 41.9424 126.427 42.6454C127.13 43.3485 127.524 44.3014 127.524 45.2949C127.524 46.2883 127.13 47.2412 126.427 47.9443C125.725 48.6474 124.772 49.0432 123.777 49.045V49.045Z" fill="white"/>
<path d="M97.0326 33.107H72.1649C71.1693 33.107 70.2146 32.7119 69.5107 32.0086C68.8067 31.3053 68.4113 30.3515 68.4113 29.3569C68.4113 28.3623 68.8067 27.4084 69.5107 26.7051C70.2146 26.0019 71.1693 25.6068 72.1649 25.6068H97.0326C98.0282 25.6068 98.9829 26.0019 99.6868 26.7051C100.391 27.4084 100.786 28.3623 100.786 29.3569C100.786 30.3515 100.391 31.3053 99.6868 32.0086C98.9829 32.7119 98.0282 33.107 97.0326 33.107V33.107Z" fill="white"/>
<path d="M173.029 86.5461H94.2027C93.2072 86.5461 92.2524 86.151 91.5485 85.4477C90.8446 84.7444 90.4491 83.7906 90.4491 82.796C90.4491 81.8014 90.8446 80.8475 91.5485 80.1442C92.2524 79.441 93.2072 79.0459 94.2027 79.0459H173.029C174.024 79.0459 174.979 79.441 175.683 80.1442C176.387 80.8475 176.783 81.8014 176.783 82.796C176.783 83.7906 176.387 84.7444 175.683 85.4477C174.979 86.151 174.024 86.5461 173.029 86.5461V86.5461Z" fill="white"/>
<path d="M173.029 103.89H94.2027C93.7092 103.891 93.2204 103.795 92.7642 103.607C92.3081 103.419 91.8935 103.143 91.5442 102.794C91.195 102.446 90.9179 102.032 90.7289 101.577C90.5398 101.121 90.4425 100.633 90.4425 100.14C90.4425 99.6472 90.5398 99.1591 90.7289 98.7036C90.9179 98.2482 91.195 97.8345 91.5442 97.4862C91.8935 97.1379 92.3081 96.8618 92.7642 96.6737C93.2204 96.4857 93.7092 96.3893 94.2027 96.3901H173.029C173.522 96.3893 174.011 96.4857 174.467 96.6737C174.924 96.8618 175.338 97.1379 175.687 97.4862C176.037 97.8345 176.314 98.2482 176.503 98.7036C176.692 99.1591 176.789 99.6472 176.789 100.14C176.789 100.633 176.692 101.121 176.503 101.577C176.314 102.032 176.037 102.446 175.687 102.794C175.338 103.143 174.924 103.419 174.467 103.607C174.011 103.795 173.522 103.891 173.029 103.89V103.89Z" fill="white"/>
<path d="M402.427 327.788H251.836C251.684 327.788 251.538 327.728 251.431 327.621C251.323 327.513 251.263 327.368 251.263 327.216C251.263 327.064 251.323 326.919 251.431 326.812C251.538 326.704 251.684 326.644 251.836 326.644H402.427C402.579 326.644 402.725 326.704 402.832 326.812C402.94 326.919 403 327.064 403 327.216C403 327.368 402.94 327.513 402.832 327.621C402.725 327.728 402.579 327.788 402.427 327.788Z" fill="#CBCBCB"/>
<path d="M139.608 327.788H84.0664C83.9145 327.788 83.7689 327.728 83.6615 327.621C83.5541 327.513 83.4938 327.368 83.4938 327.216C83.4938 327.064 83.5541 326.919 83.6615 326.812C83.7689 326.704 83.9145 326.644 84.0664 326.644H139.608C139.76 326.644 139.905 326.704 140.013 326.812C140.12 326.919 140.18 327.064 140.18 327.216C140.18 327.368 140.12 327.513 140.013 327.621C139.905 327.728 139.76 327.788 139.608 327.788Z" fill="#CBCBCB"/>
<path d="M104.489 310.101C106.61 310.053 108.682 309.459 110.507 308.378C112.331 307.297 113.847 305.764 114.906 303.928C117.576 299.176 116.763 293.314 115.869 287.938L113.23 272.037L108.661 278.614C105.375 283.343 102.026 288.208 100.623 293.793C99.2199 299.377 100.16 305.923 104.44 309.779" fill="#E6E6E6"/>
<path d="M111.782 327.807C109.439 323.495 107.055 319.131 105.757 314.369C104.604 310.14 104.343 305.682 105.646 301.455C106.339 299.215 107.417 297.113 108.833 295.243C109.203 294.755 109.938 295.354 109.571 295.839C107.123 299.081 105.769 303.016 105.705 307.076C105.643 311.586 107.013 315.962 108.858 320.033C109.973 322.495 111.261 324.873 112.551 327.247C112.622 327.35 112.65 327.476 112.631 327.599C112.612 327.723 112.546 327.834 112.447 327.91C112.345 327.983 112.218 328.014 112.094 327.994C111.97 327.975 111.859 327.907 111.784 327.806L111.782 327.807Z" fill="#F2F2F2"/>
</g>
<defs>
<clipPath id="clip0_204_2">
<rect width="403" height="328" fill="white"/>
</clipPath>
</defs>
</svg>
