<svg width="200" height="200" viewBox="0 0 200 200" fill="none" xmlns="http://www.w3.org/2000/svg">
<g id="finished" clip-path="url(#clip0_171_151)">
<path id="Ellipse 3" d="M53.9841 148.286C52.4745 152.946 47.4313 155.558 43.0493 153.369C38.4327 151.063 34.1264 148.157 30.246 144.716C24.147 139.308 19.2318 132.698 15.8093 125.3C12.3868 117.903 10.5308 109.877 10.3579 101.728C10.185 93.5784 11.6988 85.4814 14.8045 77.945C17.9101 70.4087 22.5404 63.5959 28.4045 57.9344C34.2687 52.2729 41.2401 47.885 48.881 45.0462C56.5218 42.2075 64.6671 40.9792 72.8053 41.4385C77.983 41.7308 83.0868 42.7021 87.9878 44.318C92.6399 45.8518 94.3787 51.2584 92.167 55.6291V55.6291C89.9552 59.9997 84.6224 61.645 79.8814 60.4132C77.2448 59.7282 74.54 59.3033 71.8057 59.149C66.109 58.8275 60.4073 59.6872 55.0587 61.6744C49.7101 63.6615 44.8301 66.733 40.7252 70.6961C36.6202 74.6591 33.3791 79.4281 31.2051 84.7035C29.0312 89.979 27.9715 95.6469 28.0925 101.351C28.2136 107.056 29.5128 112.674 31.9085 117.852C34.3043 123.031 37.7449 127.658 42.0142 131.443C44.0634 133.26 46.2822 134.864 48.636 136.236C52.8684 138.702 55.4937 143.626 53.9841 148.286V148.286Z" fill="white"/>
<path id="Ellipse 2" d="M106.547 100.239C106.547 120.95 89.7582 137.739 69.0475 137.739C48.3368 137.739 31.5475 120.95 31.5475 100.239C31.5475 79.5283 48.3368 62.739 69.0475 62.739C89.7582 62.739 106.547 79.5283 106.547 100.239ZM54.0475 100.239C54.0475 108.523 60.7632 115.239 69.0475 115.239C77.3318 115.239 84.0475 108.523 84.0475 100.239C84.0475 91.9547 77.3318 85.239 69.0475 85.239C60.7632 85.239 54.0475 91.9547 54.0475 100.239Z" fill="white"/>
<g id="ManFinnishGroup">
<path id="Vector" d="M178.14 146.622C179.779 149.519 178.389 159.303 178.389 159.303C178.389 159.303 169.289 155.451 167.65 152.555C166.865 151.164 166.665 149.518 167.092 147.98C167.52 146.441 168.541 145.135 169.931 144.348C171.322 143.562 172.967 143.36 174.506 143.786C176.046 144.212 177.353 145.232 178.14 146.622V146.622Z" fill="#F1F1F1"/>
<path id="Vector_2" d="M178.521 159.29L178.328 159.331C176.466 150.484 169.963 144.485 169.898 144.426L170.031 144.279C170.097 144.339 176.646 150.379 178.521 159.29Z" fill="white"/>
<path id="Vector_3" d="M193.031 149.92C190.807 153.955 178.269 159.42 178.269 159.42C178.269 159.42 176.202 145.9 178.425 141.867C179.493 139.93 181.286 138.496 183.411 137.882C185.536 137.268 187.818 137.522 189.755 138.59C191.692 139.658 193.125 141.452 193.739 143.577C194.354 145.702 194.099 147.984 193.031 149.92Z" fill="#F1F1F1"/>
<path id="Vector_4" d="M178.38 159.566L178.191 159.368C187.264 150.751 189.613 138.734 189.636 138.614L189.904 138.664C189.882 138.785 187.518 150.887 178.38 159.566Z" fill="white"/>
<path id="Vector_5" d="M194.148 160H107.228C107.168 160 107.11 159.976 107.067 159.933C107.024 159.89 107 159.832 107 159.772C107 159.711 107.024 159.653 107.067 159.611C107.11 159.568 107.168 159.544 107.228 159.544H194.148C194.209 159.544 194.267 159.568 194.31 159.611C194.352 159.653 194.376 159.711 194.376 159.772C194.376 159.832 194.352 159.89 194.31 159.933C194.267 159.976 194.209 160 194.148 160Z" fill="#CACACA"/>
<path id="Vector_6" d="M132.354 156.404L135.882 156.404L137.561 142.795L132.353 142.795L132.354 156.404Z" fill="#FFB8B8"/>
<path id="Vector_7" d="M131.454 155.252L138.403 155.252H138.403C139.577 155.252 140.703 155.718 141.534 156.549C142.364 157.379 142.831 158.505 142.831 159.68V159.824L131.454 159.824L131.454 155.252Z" fill="#2F2E41"/>
<path id="Vector_8" d="M144.217 156.404L147.745 156.404L149.424 142.795L144.217 142.795L144.217 156.404Z" fill="#FFB8B8"/>
<path id="Vector_9" d="M143.317 155.252L150.266 155.252H150.266C151.44 155.252 152.567 155.718 153.397 156.549C154.227 157.379 154.694 158.505 154.694 159.68V159.824L143.317 159.824L143.317 155.252Z" fill="#2F2E41"/>
<path id="Vector_10" d="M137.9 108.612L138.746 151.787L131.899 151.363L127.15 123.862L125.649 105.112L137.9 108.612Z" fill="#2F2E41"/>
<path id="Vector_11" d="M149.65 101.362L150.609 152.471L142.624 152.243L140.9 121.862L137.9 110.862L125.65 105.112L127.65 91.3621L145.65 91.1121L149.65 101.362Z" fill="#2F2E41"/>
<path id="Vector_12" d="M135.883 55.6119C139.265 55.6119 142.006 52.8706 142.006 49.4891C142.006 46.1076 139.265 43.3663 135.883 43.3663C132.502 43.3663 129.76 46.1076 129.76 49.4891C129.76 52.8706 132.502 55.6119 135.883 55.6119Z" fill="#FFB8B8"/>
<path id="Vector_13" d="M140.962 58.1912L141.9 59.612L144.4 66.6119L142.4 93.862L130.649 94.1122L129.15 62.8618L132.292 58.9342L140.962 58.1912Z" fill="#CCCCCC"/>
<path id="Vector_14" d="M124.4 63.6119L122.4 63.3619C122.4 63.3619 121.9 63.6119 121.65 65.3619C121.4 67.112 118.4 82.6121 118.4 82.6121L122.4 101.612L126.9 95.6121L124.15 85.1121L126.9 74.612L124.4 63.6119Z" fill="#2F2E41"/>
<path id="Vector_15" d="M149.9 63.3621H151.4L155.15 83.612L151.65 99.3621L148.15 93.6122L149.15 87.3621L148.65 81.8622L146.9 78.6119L149.9 63.3621Z" fill="#2F2E41"/>
<path id="Vector_16" d="M139.501 49.4891L138.388 49.2108C138.388 49.2108 137.553 44.4795 135.605 45.0362C133.657 45.5928 128.647 46.1494 128.647 43.9229C128.647 41.6964 133.379 39.7483 136.162 40.0266C138.945 40.3049 142.499 41.2282 143.398 45.3145C144.838 51.8649 140.426 53.5195 140.426 53.5195L140.499 53.281C140.703 52.6188 140.718 51.9127 140.541 51.2427C140.365 50.5726 140.005 49.9652 139.501 49.4891V49.4891Z" fill="#2F2E41"/>
<path id="Vector_17" d="M122.65 63.3619L130.65 60.1119L132.525 58.7369L138.15 83.6121L140.775 57.9869L151.15 63.3619L147.65 80.362L147.15 86.8621L148.65 92.1121C148.65 92.1121 153.9 95.8621 152.15 99.8621C150.4 103.862 148.4 104.112 148.4 104.112C148.4 104.112 139.9 96.1121 139.4 94.1121C138.9 92.1121 138.15 88.6121 138.15 88.6121C138.15 88.6121 133.9 104.612 128.9 104.362C123.9 104.112 123.9 98.8621 123.9 98.8621L125.15 93.3621L127.15 87.6121L126.15 78.112L122.65 63.3619Z" fill="#2F2E41"/>
</g>
</g>
<defs>
<clipPath id="clip0_171_151">
<rect width="200" height="200" fill="white"/>
</clipPath>
</defs>
</svg>
