<svg width="200" height="200" viewBox="0 0 200 200" fill="none" xmlns="http://www.w3.org/2000/svg">
<g id="menschen">
<g id="ManGroup">
<path id="Vector" d="M99.3233 116.931C99.3252 126.668 96.3946 136.18 90.9133 144.228C85.432 152.276 77.6541 158.487 68.5928 162.051C67.882 162.336 67.1582 162.601 66.431 162.847C65.6187 163.125 64.7976 163.381 63.9678 163.613C63.3914 163.774 62.8094 163.924 62.222 164.065C53.3796 166.184 44.1208 165.789 35.4909 162.925C34.8128 162.699 34.1414 162.457 33.4764 162.205C32.5822 161.861 31.6979 161.491 30.8299 161.094C30.7643 161.068 30.7021 161.039 30.6399 161.009C30.2992 160.852 29.9684 160.695 29.631 160.528H29.6278C29.1659 160.305 28.7084 160.074 28.2554 159.833C27.2137 159.283 26.1951 158.697 25.1993 158.074C24.6818 157.753 24.1719 157.42 23.6697 157.075C15.7648 151.738 9.6108 144.187 5.97865 135.368C2.34649 126.549 1.39777 116.854 3.25135 107.498C5.10493 98.1419 9.67836 89.5409 16.3986 82.7727C23.1189 76.0045 31.6871 71.37 41.0297 69.45C41.8846 69.2731 42.7482 69.1202 43.6206 68.9914C44.1676 68.9062 44.7212 68.8342 45.2747 68.7719C45.6711 68.7261 46.0674 68.6835 46.4703 68.6507H46.4736C47.5512 68.5525 48.6386 68.4913 49.7359 68.4673C49.8866 68.464 50.0373 68.4608 50.1912 68.4575C50.2764 68.4575 50.3615 68.4542 50.4467 68.4575H50.45C50.581 68.4542 50.712 68.4542 50.8463 68.4542C51.3966 68.4542 51.9469 68.464 52.4939 68.4837C53.6992 68.523 54.8915 68.606 56.0707 68.7326C56.752 68.8047 57.4235 68.8931 58.0949 68.9914C58.1703 69.0045 58.2489 69.0143 58.3242 69.0274C58.547 69.0635 58.773 69.0995 58.9957 69.1388C59.4674 69.2141 59.9358 69.3026 60.4041 69.3976C60.8431 69.486 61.2787 69.5777 61.7143 69.676C63.3244 70.0433 64.9141 70.4948 66.4769 71.0287C77.0682 74.6496 86.0854 81.8146 92.0059 91.3138C92.173 91.5791 92.3368 91.8477 92.4972 92.1195C92.6217 92.3226 92.7396 92.5257 92.8576 92.732C92.9001 92.8008 92.9394 92.8696 92.9755 92.9384C93.0017 92.9777 93.0213 93.017 93.0443 93.0563C93.2604 93.433 93.4701 93.8162 93.6731 94.1994C97.3946 101.198 99.3352 109.005 99.3233 116.931V116.931Z" fill="white"/>
<path id="Vector_2" d="M50.8514 165.737C45.5962 165.737 40.3751 164.893 35.3877 163.236C34.7447 163.022 34.0817 162.785 33.3603 162.511C32.4503 162.161 31.5536 161.785 30.6938 161.392C30.6366 161.37 30.5686 161.338 30.5006 161.306C30.1746 161.155 29.8558 161.004 29.5316 160.844L29.4855 160.823C29.0256 160.601 28.5601 160.366 28.102 160.123C27.0587 159.572 26.0236 158.976 25.0257 158.352C24.5064 158.03 23.9875 157.691 23.4842 157.345C15.5264 151.972 9.3313 144.37 5.67506 135.491C2.01883 126.612 1.06407 116.852 2.93039 107.433C4.79671 98.0139 9.40112 89.3551 16.1667 82.5414C22.9323 75.7277 31.5583 71.0621 40.9638 69.1291C41.8213 68.9517 42.6993 68.7964 43.5728 68.6674C44.0901 68.5869 44.6513 68.5124 45.2381 68.4465C45.6371 68.4003 46.0371 68.3574 46.4437 68.3243C47.5231 68.2263 48.6283 68.1641 49.7287 68.1397L50.2723 68.1293C50.3345 68.1284 50.3968 68.1279 50.459 68.1301C50.5756 68.1268 50.7093 68.1268 50.8463 68.1268C51.4005 68.1268 51.9588 68.1367 52.5057 68.1564C53.7138 68.1959 54.9254 68.2802 56.1057 68.407C56.7307 68.473 57.397 68.5583 58.1423 68.6674L58.4572 68.7173C58.6553 68.7491 58.8552 68.7814 59.0526 68.8163C59.4774 68.8841 59.9292 68.9671 60.4692 69.0766C60.9102 69.1656 61.3483 69.2577 61.7865 69.3565C63.4078 69.7268 65.0088 70.1815 66.5827 70.7189C77.24 74.3742 86.315 81.5851 92.2839 91.1407C92.4518 91.4071 92.6169 91.678 92.7793 91.9531C92.9027 92.1542 93.0223 92.3602 93.1419 92.5695C93.1803 92.6311 93.2206 92.7015 93.2582 92.7723C93.2765 92.8011 93.2927 92.8298 93.3087 92.8585L93.3273 92.8915C93.5331 93.2502 93.7406 93.6272 93.9626 94.0461C97.1849 100.119 99.0881 106.805 99.5475 113.665C100.007 120.525 99.0122 127.404 96.6284 133.853C94.2447 140.302 90.5258 146.174 85.7151 151.086C80.9044 155.998 75.1105 159.838 68.7127 162.356C68.019 162.634 67.2859 162.904 66.5358 163.157C65.7235 163.436 64.8888 163.695 64.0563 163.929C63.4797 164.089 62.8884 164.242 62.2984 164.384C58.5491 165.283 54.707 165.737 50.8514 165.737V165.737ZM29.7027 160.2H29.7045L29.7765 160.234C30.1111 160.4 30.4392 160.556 30.7771 160.712C30.8367 160.74 30.8927 160.767 30.9516 160.79C31.8136 161.184 32.6978 161.555 33.594 161.899C34.3056 162.169 34.9604 162.403 35.5945 162.615C44.166 165.462 53.363 165.854 62.1457 163.747C62.728 163.607 63.3115 163.456 63.88 163.298C64.7001 163.068 65.5228 162.812 66.3248 162.537C67.0648 162.287 67.7864 162.021 68.4709 161.747C77.4932 158.239 85.2402 152.078 90.6897 144.077C96.1392 136.076 99.0352 126.611 98.9957 116.931V116.931C99.0007 109.059 97.0737 101.307 93.3839 94.3533C93.1653 93.9405 92.9613 93.5698 92.7602 93.2195L92.736 93.1765C92.7256 93.1579 92.7156 93.1391 92.7031 93.1205L92.6853 93.0904C92.6528 93.0286 92.6174 92.9665 92.5791 92.9044C92.457 92.6912 92.3407 92.491 92.2181 92.2909C92.0563 92.017 91.8942 91.751 91.7288 91.4885C85.8398 82.0602 76.8859 74.9454 66.3709 71.3388C64.8189 70.8088 63.2403 70.3604 61.6415 69.9955C61.209 69.8977 60.7758 69.8066 60.3395 69.7188C59.8082 69.611 59.3649 69.5296 58.944 69.4622C58.7445 69.4271 58.5478 69.3954 58.3529 69.3639L58.0388 69.3141C57.3109 69.2078 56.653 69.1237 56.0362 69.0584C54.8715 68.9332 53.6762 68.85 52.4832 68.8111C51.943 68.7916 51.3926 68.7819 50.8463 68.7819C50.713 68.7824 50.5863 68.7819 50.458 68.7849C50.3831 68.783 50.3318 68.7837 50.2805 68.7843L49.7429 68.7948C48.6577 68.8187 47.5676 68.8799 46.5033 68.977L46.4703 68.9783C46.0977 69.0096 45.7051 69.0519 45.3124 69.0973C44.7336 69.1624 44.1818 69.2356 43.671 69.3151C42.8073 69.4427 41.9418 69.5958 41.096 69.7707C31.8165 71.6777 23.3062 76.2808 16.6313 83.0033C9.95635 89.7257 5.41376 98.2686 3.57267 107.561C1.73159 116.854 2.67387 126.484 6.28147 135.243C9.88907 144.003 16.0015 151.503 23.853 156.804C24.3501 157.146 24.8604 157.479 25.372 157.796C26.3574 158.412 27.3787 159 28.4084 159.544C28.8372 159.771 29.2722 159.992 29.7027 160.2Z" fill="#CBCBCB"/>
<path id="Vector_3" d="M92.329 106.405C91.7998 107.096 91.1256 107.662 90.3538 108.064C89.5821 108.466 88.7316 108.694 87.8622 108.731C86.9929 108.769 86.1259 108.616 85.3222 108.282C84.5185 107.948 83.7978 107.443 83.2108 106.8L70.421 111.429L65.7127 104.343L83.8661 98.06C85.0105 97.1453 86.4507 96.6822 87.9137 96.7584C89.3767 96.8346 90.761 97.4449 91.8041 98.4735C92.8473 99.5021 93.4769 100.878 93.5736 102.339C93.6704 103.801 93.2275 105.248 92.329 106.405V106.405Z" fill="#9F616A"/>
<path id="Vector_4" d="M52.3642 107.065L78.7135 98.3552L83.1537 108.047L58.5876 115.581L52.3642 107.065Z" fill="#CCCCCC"/>
<path id="Vector_5" d="M62.222 164.065C53.3795 166.184 44.1208 165.789 35.4909 162.925L36.0804 157.351L36.6275 152.143L44.8325 139.457L47.4627 135.392L58.3013 139.332L59.4051 146.293L61.164 157.393L62.222 164.065Z" fill="#2F2E41"/>
<path id="Vector_6" d="M68.5928 162.051C67.882 162.336 67.1581 162.601 66.431 162.847C65.6187 163.125 64.7976 163.381 63.9678 163.613C63.3913 163.774 62.8094 163.924 62.222 164.065C53.3795 166.184 44.1208 165.789 35.4908 162.925C34.8128 162.699 34.1413 162.457 33.4764 162.205C33.5672 164.145 33.508 166.088 33.2995 168.019C32.3534 165.756 31.5289 163.445 30.8298 161.094C30.7807 160.937 30.7349 160.78 30.689 160.623C30.4597 159.83 30.2566 159.074 30.0732 158.363C29.8636 157.541 29.6834 156.777 29.5328 156.08C28.9333 153.341 28.7434 151.648 28.7434 151.648L35.1469 138.35L36.4276 138.497L36.9583 138.556L40.1682 138.923L44.8325 139.457L52.389 140.318L59.4051 146.293L65.6907 151.648C65.6907 151.648 66.2148 153.43 67.0369 156.381C67.4824 157.966 68.0098 159.889 68.5928 162.051Z" fill="#2F2E41"/>
<path id="Vector_7" d="M48.2916 73.5904C54.549 73.5904 59.6217 68.5178 59.6217 62.2604C59.6217 56.0029 54.549 50.9303 48.2916 50.9303C42.0342 50.9303 36.9615 56.0029 36.9615 62.2604C36.9615 68.5178 42.0342 73.5904 48.2916 73.5904Z" fill="#9F616A"/>
<path id="Vector_8" d="M56.1784 86.1285C56.1784 86.1285 53.4553 77.7113 47.0513 77.7113C45.4504 77.7113 42.8667 77.844 40.7664 79.2145C32.3105 84.7324 27.1664 94.1115 26.7723 104.201L24.8034 154.604C24.8034 154.604 35.6408 158.545 39.5817 157.067C43.5226 155.589 47.4635 145.737 47.4635 145.737C47.4635 145.737 46.4783 159.038 50.4192 158.545C54.3601 158.052 69.1384 157.067 69.631 155.097C70.1237 153.126 62.0897 110.759 62.0897 110.759L56.1784 86.1285Z" fill="#CCCCCC"/>
<path id="Vector_9" d="M42.7836 65.5821C43.8 65.5214 44.7925 65.8649 45.8018 65.9989C49.4131 66.4784 53.1699 63.8579 53.9673 60.3032C54.0312 59.8299 54.1723 59.3702 54.3849 58.9425C54.9407 58.035 56.2065 57.862 57.25 58.0707C58.2934 58.2794 59.2825 58.7677 60.3452 58.8235C61.9859 58.9096 63.5611 57.8995 64.4356 56.5085C65.31 55.1175 65.5576 53.4058 65.4395 51.7671L64.653 52.5926C64.3333 51.9164 64.2099 51.1641 64.2968 50.4213C63.88 50.3103 63.4416 50.3081 63.0238 50.4151C62.6059 50.522 62.2225 50.7344 61.9102 51.032C61.2166 51.1058 61.7401 49.7455 61.2248 49.2754C60.9742 49.1215 60.6755 49.0656 60.3862 49.1185C58.9107 49.1328 57.7171 48.0042 56.5544 47.0957C54.5399 45.5251 52.184 44.4506 49.6774 43.9588C48.0113 43.6339 46.2396 43.5817 44.6595 44.2021C43.3619 44.7116 42.2757 45.6396 41.2709 46.6058C38.7971 48.9845 36.6066 51.7794 35.5774 55.0533C34.7408 57.7349 34.7171 60.6042 35.5093 63.2993C35.924 64.6989 37.1738 69.4922 39.0034 69.6038C41.3023 69.744 39.9221 65.7528 42.7836 65.5821Z" fill="#2F2E41"/>
<path id="Vector_10" opacity="0.1" d="M47.5676 101.046L35.9655 118.062L32.2551 157.587L47.5676 101.046Z" fill="black"/>
<path id="Vector_11" d="M96.7397 90.644C97.0173 90.2549 97.1241 89.8551 96.9781 89.7509C96.8322 89.6468 96.4889 89.8779 96.2112 90.267C95.9336 90.6561 95.8268 91.056 95.9728 91.1601C96.1187 91.2642 96.462 91.0331 96.7397 90.644Z" fill="#3F3D56"/>
<path id="Vector_12" d="M81.2675 108.976C80.9405 108.743 80.7196 108.389 80.6533 107.993C80.5871 107.597 80.6809 107.191 80.9142 106.864V106.864L94.1099 88.369C94.3432 88.042 94.6969 87.8211 95.0931 87.7548C95.4893 87.6886 95.8956 87.7824 96.2226 88.0157L81.2675 108.976L81.2675 108.976Z" fill="#027BFF"/>
<path id="Vector_13" d="M81.8093 110.825L81.0457 110.28C80.9147 110.187 80.8034 110.068 80.7181 109.932C80.6328 109.795 80.5752 109.643 80.5487 109.484C80.5221 109.326 80.5271 109.163 80.5633 109.006C80.5996 108.85 80.6663 108.701 80.7598 108.57L95.7842 87.5125C95.9436 87.2891 96.1853 87.1381 96.4561 87.0929C96.7268 87.0476 97.0044 87.1117 97.2279 87.2711V87.2711L98.1467 87.9267L81.8093 110.825H81.8093Z" fill="#2F2E41"/>
<path id="Vector_14" d="M95.3305 89.6386L94.3251 91.0477L94.6774 91.2991L95.6828 89.8899L95.3305 89.6386Z" fill="#D0CDE1"/>
<path id="Vector_15" d="M93.9481 91.5762L92.9427 92.9853L93.295 93.2366L94.3004 91.8275L93.9481 91.5762Z" fill="#D0CDE1"/>
<path id="Vector_16" d="M34.8889 170.48C35.3972 169.774 35.7444 168.965 35.9062 168.11C36.068 167.255 36.0404 166.375 35.8252 165.531C35.6101 164.688 35.2127 163.903 34.6611 163.23C34.1094 162.557 33.417 162.013 32.6324 161.637L33.3673 148.055L25.2227 145.595L24.4543 164.79C23.9094 166.15 23.8822 167.662 24.378 169.041C24.8737 170.419 25.858 171.568 27.1441 172.27C28.4303 172.971 29.9291 173.176 31.3565 172.846C32.7839 172.517 34.0408 171.675 34.8889 170.48H34.8889Z" fill="#9F616A"/>
<path id="Vector_17" d="M34.8455 159.308H23.0627L19.8206 123.015L19.8317 122.982L30.86 90.5929C31.2483 89.4524 31.8698 88.4054 32.685 87.5183C33.5002 86.6313 34.4912 85.9237 35.5948 85.4407C36.6985 84.9577 37.8906 84.7098 39.0954 84.7128C40.3001 84.7158 41.491 84.9697 42.5922 85.4582C43.6935 85.9467 44.6809 86.6592 45.4916 87.5503C46.3024 88.4414 46.9187 89.4916 47.3013 90.634C47.6839 91.7763 47.8244 92.9858 47.7139 94.1855C47.6034 95.3851 47.2443 96.5486 46.6594 97.6019L33.6827 120.971L34.8455 159.308Z" fill="#CCCCCC"/>
</g>
<g id="WomanGroup">
<path id="Vector_18" d="M196.979 116.928C196.988 126.481 194.177 135.824 188.898 143.786C183.619 151.748 176.107 157.975 167.304 161.685C158.501 165.396 148.798 166.425 139.413 164.644C130.027 162.863 121.376 158.351 114.544 151.674C107.712 144.997 103.003 136.451 101.007 127.109C99.0116 117.766 99.8183 108.043 103.326 99.1568C106.834 90.271 112.887 82.6183 120.726 77.1582C128.565 71.6981 137.841 68.6735 147.392 68.4636C147.543 68.4604 147.693 68.4571 147.847 68.4538C148.063 68.4505 148.283 68.4505 148.502 68.4505C149.053 68.4505 149.603 68.4604 150.15 68.48C151.355 68.5193 152.548 68.6023 153.727 68.7289C154.408 68.801 155.08 68.8894 155.751 68.9877C155.826 69.0008 155.905 69.0106 155.98 69.0237C158.751 69.4509 161.479 70.1206 164.133 71.0251C173.713 74.2922 182.031 80.4747 187.921 88.7062C193.811 96.9377 196.979 106.806 196.979 116.928Z" fill="white"/>
<path id="Vector_19" d="M148.457 165.822C121.542 165.823 99.6346 143.94 99.6092 117.019C99.5972 104.242 104.592 91.968 113.523 82.83C122.454 73.6919 134.61 68.4169 147.385 68.1361L147.84 68.1262C148.612 68.1152 149.397 68.1251 150.162 68.1526C151.369 68.1921 152.58 68.2764 153.762 68.4034C154.387 68.4694 155.054 68.5547 155.799 68.6637L156.036 68.701C167.541 70.4873 178.026 76.3318 185.596 85.1773C193.166 94.0228 197.32 105.285 197.307 116.928V116.927C197.332 143.863 175.44 165.797 148.504 165.822L148.457 165.822ZM148.497 68.7781C148.281 68.7781 148.065 68.7781 147.852 68.7813L147.399 68.7912C121.384 69.3628 100.24 90.9978 100.264 117.019C100.289 143.577 121.905 165.166 148.457 165.167H148.504C175.078 165.142 196.677 143.502 196.652 116.928V116.928C196.665 105.441 192.566 94.3285 185.097 85.6014C177.627 76.8743 167.282 71.1087 155.93 69.3475L155.695 69.3105C154.968 69.204 154.31 69.1199 153.692 69.0548C152.526 68.9294 151.331 68.8462 150.139 68.8074C149.599 68.7879 149.049 68.7781 148.502 68.7781H148.497Z" fill="#CBCBCB"/>
<path id="Vector_20" d="M111.409 119.544C111.505 119.393 111.255 119.063 110.851 118.807C110.448 118.551 110.042 118.467 109.947 118.618C109.851 118.77 110.1 119.1 110.504 119.356C110.908 119.611 111.313 119.696 111.409 119.544Z" fill="#3F3D56"/>
<path id="Vector_21" d="M109.992 116.726C110.099 116.558 110.237 116.413 110.4 116.298C110.562 116.184 110.746 116.102 110.94 116.059C111.134 116.015 111.335 116.01 111.531 116.044C111.727 116.078 111.914 116.151 112.082 116.257V116.257L131.277 128.412C131.445 128.518 131.59 128.657 131.705 128.819C131.819 128.982 131.901 129.166 131.944 129.36C131.988 129.554 131.993 129.755 131.959 129.951C131.925 130.147 131.853 130.334 131.746 130.502V130.502L109.992 116.726V116.726Z" fill="#027BFF"/>
<path id="Vector_22" d="M108.176 117.369L108.78 116.416C108.927 116.184 109.16 116.02 109.428 115.96C109.696 115.899 109.977 115.948 110.208 116.095L132.063 129.934C132.199 130.021 132.317 130.133 132.41 130.264C132.502 130.396 132.568 130.544 132.603 130.702C132.639 130.859 132.643 131.021 132.615 131.18C132.588 131.338 132.529 131.49 132.443 131.626L131.941 132.418L108.176 117.369H108.176Z" fill="#2F2E41"/>
<path id="Vector_23" d="M111.43 117.893L111.199 118.259L112.661 119.185L112.893 118.819L111.43 117.893Z" fill="#D0CDE1"/>
<path id="Vector_24" d="M113.441 119.166L113.21 119.532L114.672 120.458L114.904 120.093L113.441 119.166Z" fill="#D0CDE1"/>
<path id="Vector_25" d="M148.632 73.4408C156.167 73.4408 162.275 67.3327 162.275 59.7979C162.275 52.2631 156.167 46.1549 148.632 46.1549C141.097 46.1549 134.989 52.2631 134.989 59.7979C134.989 67.3327 141.097 73.4408 148.632 73.4408Z" fill="#FFB8B8"/>
<path id="Vector_26" d="M161.624 163.61C150.555 166.701 138.75 165.778 128.296 161.006L129.344 133L129.423 130.822L129.452 130.115L129.488 129.073L129.514 128.408C129.514 128.408 129.557 128.405 129.639 128.402C129.862 128.385 130.376 128.349 131.113 128.307C131.968 128.257 133.118 128.195 134.457 128.14C134.775 128.126 135.102 128.113 135.44 128.097C142.495 127.835 153.514 127.779 154.971 129.905L155.155 131.156L155.45 133.177L156.052 137.308C156.052 137.308 162.905 150.934 161.624 163.61Z" fill="#2F2E41"/>
<path id="Vector_27" d="M165.088 92.9764L162.4 117.798L157.283 129.118L155.386 133.316L127.934 132.983L130.762 113.85C126.769 103.534 136.252 99.3749 136.252 99.3749L146.09 79.2194C146.09 79.2194 148.71 77.9092 155.552 77.5795C161.913 77.2729 156.899 78.2368 156.899 78.2368C165.218 77.4049 165.088 92.9764 165.088 92.9764Z" fill="#CCCCCC"/>
<path id="Vector_28" opacity="0.2" d="M156.832 119.108L151.714 130.428C150.071 127.354 148.819 123.872 148.819 121.815C148.819 116.158 154.476 119.153 154.476 119.153C154.476 119.153 149.901 94.1132 149.901 86.6262C149.901 81.6532 154.047 103.723 156.832 119.108Z" fill="black"/>
<path id="Vector_29" d="M164.355 51.4861C163.468 49.3202 162.095 47.3869 160.342 45.8353C161.061 45.5943 161.661 45.0887 162.02 44.4213C162.546 43.3819 162.267 42.0784 161.553 41.1481C160.903 40.362 160.061 39.7563 159.109 39.3889C159.806 39.7061 160.569 39.8529 161.335 39.8171C162.263 39.7206 163.19 38.9924 163.135 38.0888C163.083 37.2281 162.236 36.646 161.476 36.1968C160.983 35.9054 160.49 35.614 159.997 35.3227C160.143 35.0396 160.272 34.7477 160.382 34.4487C160.808 33.3616 160.91 32.1749 160.678 31.0309C160.445 29.887 159.887 28.8345 159.071 28C160.685 29.6435 160.273 32.1871 158.678 34.2512C158.627 34.3178 158.571 34.3826 158.518 34.4483C158.202 34.2615 157.886 34.0747 157.57 33.8879C156.782 33.422 155.962 32.9452 155.047 32.8353C154.131 32.7255 153.088 33.0879 152.714 33.9046C152.314 34.7788 152.769 35.8943 152.248 36.706C151.792 37.4162 150.796 37.5675 149.933 37.5338C149.069 37.5002 148.152 37.3638 147.384 37.7456C146.316 38.2764 145.966 39.7117 146.441 40.7822C146.652 41.2381 146.966 41.6384 147.36 41.9512C145.074 42.2703 142.824 42.9488 140.612 43.6389C138.004 44.4526 135.348 45.3169 133.169 46.964C130.989 48.6111 129.338 51.211 129.546 53.935C129.753 56.6589 132.459 60.9492 135.156 60.5137L135.567 59.2283C137.198 58.4531 139.03 58.2063 140.808 58.5224C142.586 58.8385 144.221 59.7017 145.484 60.9916C145.516 59.2766 148.126 58.7068 149.427 59.8249C150.727 60.9431 150.978 62.8335 151.079 64.5459C151.18 66.2582 151.276 68.1226 152.404 69.4149C153.486 70.6551 155.33 71.0397 156.935 70.6702C158.539 70.3007 159.926 69.283 161.074 68.1039C165.242 63.8259 166.585 57.0271 164.355 51.4861Z" fill="#2F2E41"/>
<path id="Vector_30" d="M120.84 131.344C121.547 131.853 122.356 132.2 123.211 132.362C124.066 132.523 124.946 132.496 125.789 132.281C126.632 132.066 127.418 131.668 128.091 131.117C128.764 130.565 129.308 129.872 129.684 129.088L166.849 129.823L169.309 121.678L126.531 120.91C125.171 120.365 123.658 120.338 122.28 120.833C120.901 121.329 119.752 122.313 119.051 123.6C118.349 124.886 118.144 126.385 118.474 127.812C118.804 129.239 119.646 130.496 120.84 131.344V131.344Z" fill="#FFB8B8"/>
<path id="Vector_31" d="M156.972 76.8931C156.972 76.8931 148.32 77.5586 148.32 85.0456C148.32 92.5326 156.14 119.153 156.14 119.153C156.14 119.153 150.483 116.158 150.483 121.815C150.483 127.472 159.967 143.943 160.965 132.962C160.965 132.962 175.273 139.95 174.442 126.806C173.61 113.663 164.625 85.8775 164.625 85.8775C164.625 85.8775 163.627 76.394 156.972 76.8931Z" fill="#CCCCCC"/>
</g>
</g>
</svg>
